<svg width="39" height="38" viewBox="0 0 39 38" fill="none" xmlns="http://www.w3.org/2000/svg">
<path d="M4.83689 37.2813C4.59889 37.2813 4.39489 37.2133 4.25889 37.0773C3.85089 36.6693 3.64689 36.2613 3.54489 35.8873C3.20489 34.7993 2.93289 33.6773 2.93289 32.5553C2.93289 32.4873 2.93289 32.4193 2.93289 32.3513C2.93289 31.0253 2.62689 29.9033 2.49089 28.6453C2.45689 28.4753 2.45689 28.3053 2.45689 28.1013C2.45689 27.7613 2.49089 27.4213 2.49089 27.0813C2.49089 26.6053 2.38889 26.1633 2.32089 25.6533C2.21889 24.8373 2.08289 23.9533 2.08289 23.0353C2.08289 22.5253 2.08289 21.9813 2.08289 21.4373C2.08289 20.7233 1.84489 19.9753 1.84489 19.2273C1.84489 18.6833 1.64089 18.0713 1.64089 17.3913C1.64089 17.2893 1.57289 17.1533 1.50489 16.9833C1.36889 16.7113 1.30089 16.4733 1.30089 16.2693C1.30089 15.9633 1.47089 15.6233 1.74289 15.3513C2.04889 15.0453 2.52489 14.5693 3.27289 14.5693C3.85089 14.5693 4.42889 14.5693 5.00689 14.5013C6.09489 14.3993 7.76089 13.5493 8.71289 13.5153C9.29089 13.4813 9.63089 13.2433 10.0049 13.2433C10.1409 13.2433 10.2769 13.2433 10.4129 13.2433C10.7869 13.2433 11.1949 13.1413 11.7389 13.0733C12.1129 13.0393 12.5889 12.9373 13.0309 12.9373C13.5069 12.9373 13.8469 13.0393 14.2209 13.0733C14.4589 13.1073 14.6629 13.1073 14.8669 13.1073C15.2409 13.1073 15.5809 13.0733 15.9549 12.9373C16.8729 12.6313 17.6209 12.8013 18.1309 12.2913C18.2329 12.1893 18.4029 12.0873 18.5389 12.0193C19.0829 11.7133 19.6269 11.6793 20.1709 11.5773C20.4769 11.5433 20.8169 11.5773 21.0549 11.5773C21.7349 11.5773 22.4149 11.4753 23.1289 11.4413C23.4009 11.4073 23.6729 11.4073 23.9449 11.4073C24.4549 11.4073 24.9649 11.4413 25.4749 11.4413C26.0189 11.4413 26.5629 11.5433 26.9029 11.5433C27.2769 11.5433 27.5829 11.6793 27.6849 11.6793C27.8549 11.6793 28.0929 11.7473 28.1949 11.7473C28.4669 11.7473 28.6369 11.7813 28.8069 11.7813C28.9769 11.7813 29.1469 11.7473 29.3509 11.7473C29.8269 11.7473 30.2349 11.7473 30.6429 11.5773C30.9489 11.4413 32.7849 10.9993 33.2609 10.7613C33.7029 10.5573 34.0429 10.5913 34.2469 10.5233C34.5869 10.4213 34.8589 10.4213 35.1309 10.3193C35.2329 10.2853 35.3349 10.2853 35.4369 10.2853C35.8449 10.2853 36.1509 10.4893 36.5249 10.6593C36.8309 10.7953 36.9329 11.1013 36.9329 11.4073C36.9329 11.7133 37.1369 12.0193 37.1369 12.4273C37.1369 12.5633 37.1029 12.7333 37.1029 12.7673C37.1029 13.1073 37.2389 13.5153 37.3409 13.8893C37.4429 14.2633 37.4429 14.5693 37.4429 14.8413C37.4429 14.9773 37.4089 15.1133 37.4089 15.2153C37.4089 15.3513 37.4089 15.4533 37.4089 15.5213C37.4089 15.7593 37.4429 15.9973 37.4429 16.2013C37.4429 16.3033 37.4429 16.4053 37.4089 16.5413C37.3749 16.6773 37.3409 16.8133 37.3409 16.9493C37.3409 17.0513 37.4089 17.1533 37.4089 17.2893C37.4089 17.3913 37.4089 17.4593 37.4089 17.5273C37.4089 17.7653 37.3749 18.0373 37.3409 18.2413C37.3069 18.3433 37.3069 18.4113 37.3069 18.5473C37.3069 18.5813 37.2729 18.7513 37.2729 18.9553C37.2729 19.1253 37.2729 19.2613 37.3409 19.3973C37.4769 19.7373 37.5109 19.9413 37.5109 20.1113C37.5109 20.3493 37.4429 20.4513 37.4429 20.5193C37.4429 20.6213 37.4769 20.6893 37.5449 20.8933C37.6809 21.1993 37.6809 21.5733 37.6809 21.7433C37.6809 21.9473 38.3609 23.4773 38.3609 24.0893C38.3609 24.7353 38.4969 25.3473 38.4969 25.9593C38.4969 27.4553 38.3609 28.9173 38.3609 30.3453C38.3609 30.7193 38.2929 31.0253 38.2929 31.2973C38.2929 31.7733 38.0549 32.0113 37.6469 32.2153C37.3069 32.3853 36.8989 32.4873 36.5589 32.4873C36.2529 32.4873 35.9809 32.4533 35.7429 32.4533C35.0629 32.4533 34.6549 32.5553 34.2129 32.6913C33.8729 32.7933 32.1729 33.0313 31.5269 33.0313C31.3229 33.0313 31.2209 33.0993 30.8809 33.0993C30.6769 33.0993 30.5069 33.2013 30.1669 33.2013C29.9629 33.2013 28.2969 33.3713 27.8549 33.3713C27.4809 33.3713 27.2429 33.3713 27.0049 33.4393C26.6309 33.5413 23.8429 34.0853 23.6049 34.0853C23.2309 34.0853 22.9249 33.9833 22.6189 33.9833C22.1429 33.9833 21.3609 33.9493 20.4429 34.3913C19.6269 34.7653 19.0489 34.7313 18.6409 34.7993C18.1989 34.8673 17.7909 34.9693 17.3149 34.9693C16.9409 34.9693 16.5329 35.0713 16.1929 35.0713C15.3429 35.0713 14.5609 35.2753 13.7449 35.4453C13.0649 35.6153 12.4189 35.9213 11.6029 36.2613C10.8889 36.5673 10.1069 36.6013 9.35889 36.6013C8.84889 36.6013 8.20289 36.8393 7.48889 36.8393C7.25089 36.8393 7.04689 36.8393 6.84289 36.8393C6.26489 36.8393 5.89089 36.8393 5.58489 37.0433C5.31289 37.2133 5.04089 37.2813 4.83689 37.2813ZM5.41489 31.8073C5.58489 31.8073 6.09489 30.5493 6.57089 30.0733C7.48889 29.1553 8.47489 28.3393 9.42689 27.3873C9.56289 27.2513 9.66489 27.0473 9.76689 26.8433C9.93689 26.4013 10.1749 26.0273 10.5489 25.6193C11.1949 24.8713 11.8409 24.0893 12.1469 23.1713C12.3509 22.4913 12.8949 22.4573 12.4869 22.3213C11.9429 22.1513 11.1269 22.0153 10.4129 21.4373C10.0389 21.1653 9.49489 20.7573 8.91689 20.7573C8.44089 20.7573 7.96489 20.5193 7.52289 20.3493C6.84289 20.0773 4.53089 18.5473 4.53089 19.0233C4.53089 19.7373 4.53089 20.3833 4.53089 21.0293C4.53089 21.3353 4.53089 21.6073 4.59889 21.8793C4.70089 22.3213 4.73489 22.6953 4.73489 23.1373C4.73489 23.3073 4.73489 23.4433 4.73489 23.5453C4.73489 23.7153 4.76889 23.8853 4.80289 24.0553C4.93889 24.5313 4.93889 25.1093 4.93889 25.6533C4.93889 26.2993 5.00689 26.9453 5.10889 27.6253C5.14289 28.0333 5.10889 29.8013 5.10889 30.0393C5.10889 30.3453 5.10889 30.6173 5.10889 30.8553C5.10889 31.1273 5.24489 31.8073 5.41489 31.8073ZM7.11489 34.2213C7.14889 34.2213 7.18289 34.2213 7.21689 34.2213C7.42089 34.2213 7.59089 34.1533 7.93089 34.1533C8.13489 34.1533 8.37289 34.1533 8.61089 34.1533C9.52889 34.1533 10.3449 33.9493 11.2289 33.5753C12.1469 33.1673 13.1329 32.6913 14.3569 32.6913C14.4929 32.6913 14.6289 32.6573 14.7649 32.6233C15.7849 32.4533 16.9069 32.5893 17.7909 32.4533C18.3009 32.3853 18.7429 32.3173 19.1849 32.0793C20.0009 31.6713 20.9189 31.5013 21.7689 31.5013C22.0069 31.5013 22.3809 31.4673 22.7209 31.5353C23.0609 31.6033 23.4349 31.7393 23.7749 31.7393C24.3189 31.7393 24.8289 31.6033 25.3049 31.4333C25.7129 31.2973 26.1549 31.0933 26.5629 31.0933C26.9369 31.0933 27.4129 30.9233 27.9569 30.9233C28.2289 30.9233 28.4669 30.9913 28.6709 31.0253C28.7729 31.0593 28.8749 31.0593 28.9429 31.0593C29.1469 31.0593 29.3509 31.0593 29.6229 30.9573C30.2009 30.7533 30.6769 30.5833 31.2549 30.5833C31.9349 30.5833 34.2129 30.6853 33.9409 30.4133C33.8729 30.3453 33.7709 30.2773 33.7029 30.2433C33.0229 29.9033 32.7169 29.2913 32.2749 28.7133C31.9349 28.2373 31.5269 28.1013 31.0169 27.6933C30.6429 27.4213 30.2349 27.1153 29.7249 26.9113C29.3509 26.7753 28.8069 26.7073 28.4669 26.3673C28.3989 26.2993 28.2969 26.2313 28.0929 26.2313C27.6509 26.2313 27.6509 25.9933 27.5489 25.9933C26.6309 25.9933 26.0869 25.0073 25.4749 24.5653C25.2029 24.3613 24.5569 23.4093 24.3189 23.4093C24.2169 23.4093 23.9789 23.4093 24.0469 23.4093C24.1489 23.4093 24.0469 23.5113 23.9449 23.5793C23.6049 23.8853 23.2649 24.0553 22.9929 24.2593C22.8229 24.3953 22.6529 24.4973 22.5169 24.5993C22.1429 24.8033 21.9049 25.0413 21.6669 25.3473C21.5649 25.4833 21.3949 25.5513 21.2249 25.6533C20.8169 25.9253 20.6129 26.4693 19.8309 26.4693C19.2869 26.4693 18.8449 26.3333 18.4029 26.0613C18.0289 25.8573 17.6549 25.5853 17.2809 25.3473C16.6349 24.9393 15.2749 24.0553 15.0029 24.0553C14.7309 24.0553 14.4589 24.7013 14.3229 25.0413C14.1189 25.5513 13.7789 25.9933 13.4049 26.3673C13.0989 26.6733 11.8069 28.4753 11.3309 28.9513C10.7189 29.5633 10.0389 30.2433 9.49489 30.7873C9.29089 30.9913 9.01889 31.1273 8.88289 31.2633C8.57689 31.5693 7.65889 32.9293 7.55689 33.2693C7.48889 33.5413 7.31889 33.7453 7.25089 33.9493C7.21689 34.0173 7.01289 34.2213 7.11489 34.2213ZM5.51689 13.8213C5.27889 13.8213 5.00689 13.7193 4.83689 13.7193C4.53089 13.7193 3.30689 13.5153 3.10289 13.5153C2.72889 13.5153 2.28689 13.2773 2.15089 12.9373C2.04889 12.6313 2.01489 12.3933 1.94689 12.1893C1.84489 11.8153 1.64089 11.2713 1.64089 10.8293C1.64089 10.7953 1.64089 10.7273 1.64089 10.6593C1.64089 10.1153 1.33489 9.60535 1.19889 9.06134C1.06289 8.41534 0.994891 7.76934 0.892891 7.05534C0.790891 6.54534 0.382891 5.93334 0.382891 5.32134C0.382891 5.21934 0.212891 5.01534 0.212891 4.81134C0.212891 4.70934 0.280891 4.57334 0.34889 4.50534C0.68889 4.16534 1.06289 3.96134 1.40289 3.89334C2.28689 3.75734 2.89889 3.55334 3.54489 3.17934C3.74889 3.04334 3.95289 3.04334 4.12289 3.04334C4.59889 3.04334 5.17689 3.21334 5.44889 3.48534C5.61889 3.65534 5.68689 3.75734 5.78889 3.82534C6.19689 4.13134 6.43489 4.57334 6.43489 5.04934C6.43489 5.59334 6.16289 5.86534 5.75489 6.06934C5.65289 6.10334 5.55089 6.10334 5.44889 6.10334C5.17689 6.10334 4.87089 5.96734 4.70089 5.79735C4.53089 5.62734 4.46289 5.42334 4.42889 5.42334C3.91889 5.42334 3.44289 5.86534 2.96689 6.13734C2.79689 6.23934 2.76289 6.27334 2.76289 6.34134C2.76289 6.37534 2.83089 6.44334 2.86489 6.54534C2.93289 6.71534 2.89889 7.25934 3.00089 7.49734C3.10289 7.83734 4.02089 7.22534 4.53089 7.22534C4.63289 7.22534 4.73489 7.22534 4.87089 7.22534C5.51689 7.22534 5.89089 7.63334 5.89089 8.21134C5.89089 8.38134 5.95889 8.51734 5.82289 8.65335C5.75489 8.72134 5.72089 8.95934 5.44889 9.23134C5.27889 9.40134 5.07489 9.50334 4.93889 9.50334C4.83689 9.50334 4.70089 9.46935 4.56489 9.46935C4.39489 9.46935 4.08889 9.53734 3.78289 9.84334C3.64689 9.97934 3.51089 10.1153 3.51089 10.2513C3.51089 10.4553 3.81689 10.6933 3.95289 11.0673C4.05489 11.3053 4.05489 11.3053 4.22489 11.3733C4.59889 11.4753 4.90489 11.6113 5.31289 11.6113C5.72089 11.6113 6.09489 11.9173 6.09489 12.3593C6.09489 12.5633 6.23089 12.8353 6.23089 13.1073C6.23089 13.3793 6.02689 13.8213 5.51689 13.8213ZM19.2869 23.4773C19.3889 23.5453 19.4229 23.5113 19.4909 23.4433C19.7969 23.1373 20.4089 22.9333 20.8849 22.6613C20.9529 22.6273 20.9529 22.6273 21.0209 22.5593C21.1569 22.4233 21.2929 22.2873 21.4289 22.1513C22.4149 21.1653 24.1149 20.8253 24.8969 20.0433C25.0329 19.9073 25.2369 19.8053 25.4409 19.8053C25.6449 19.8053 25.7809 19.6013 26.0189 19.3293C26.3929 18.8533 26.9709 18.3773 27.5829 18.0033C28.0249 17.7313 28.2629 17.5953 28.4329 17.3573C28.5689 17.1533 28.7729 16.8813 29.1469 16.6773C29.2829 16.5753 29.3849 16.4393 29.4529 16.3713C29.9969 15.8273 30.5069 15.4873 31.1869 15.1473C31.3909 15.0453 32.8189 13.6853 32.7509 13.4813C32.6829 13.2773 31.9349 13.5833 30.9829 14.0253C30.8129 14.0933 30.4389 14.1953 29.8609 14.1953C29.3509 14.1953 28.8749 14.1953 28.3989 14.1953C28.0929 14.1953 27.8209 14.1953 27.5829 14.1273C27.0729 13.9913 26.6989 13.9913 26.0869 13.9913C25.9849 13.9913 25.7129 13.8893 25.6789 13.8893C25.4409 13.8893 25.2369 13.8893 25.0329 13.8893C24.7949 13.8893 24.4889 14.0253 24.2169 14.0253C23.8089 14.0253 23.4349 14.1273 23.0609 14.1273C22.9589 14.1273 22.8909 14.1273 22.8229 14.1273C22.6189 14.1273 22.3129 14.0253 22.2109 14.0253C22.0749 14.0253 21.8369 14.1273 21.5309 14.1273C21.4289 14.1273 21.3609 14.1273 21.2929 14.1273C20.9189 14.1273 20.6809 14.1613 20.3749 14.2633C20.0009 14.3993 19.5589 14.7053 19.0829 14.8073C18.5049 14.9093 15.1729 15.6913 14.8669 15.6913C14.6289 15.6913 14.4249 15.6913 14.2549 15.6913C13.8469 15.6913 13.6089 15.5553 13.4729 15.5553C13.3709 15.5553 13.2349 15.5893 13.0989 15.6573C12.8949 15.7593 12.6909 15.7593 12.4869 15.7593C12.1809 15.7593 10.0729 16.0653 9.97089 16.0653C9.90289 16.0653 9.66489 16.2013 9.25689 16.2013C9.05289 16.2013 8.71289 16.5413 8.23689 16.7793C8.13489 16.8133 8.03289 16.8133 7.93089 16.8133C7.69289 16.8133 7.48889 16.7793 7.31889 16.7793C7.01289 16.7793 6.80889 16.8813 6.80889 16.9833C6.80889 17.0853 7.18289 17.1193 7.59089 17.3573C8.06689 17.6633 8.50889 17.7653 9.08689 17.9693C9.63089 18.1733 10.2429 18.3093 10.8209 18.6493C11.1269 18.8533 11.4329 19.0573 11.7389 19.1933C12.2149 19.3973 12.4869 19.5333 12.7929 19.5333C13.2009 19.5333 13.5749 19.7373 13.9489 19.8053C14.5949 19.9413 15.5809 20.9613 15.7849 21.1993C16.0229 21.5053 16.2269 21.5733 16.4989 21.5733C16.9749 21.5733 18.9129 23.2733 19.2869 23.4773ZM8.13489 12.9713C7.25089 12.9713 6.97889 11.5773 6.97889 11.1353C6.97889 10.3533 6.87689 9.53734 6.87689 8.68734C6.87689 8.34734 6.97889 8.04134 6.97889 7.73534C6.97889 6.95334 7.18289 6.17134 7.18289 5.49134C7.18289 5.01534 7.38689 4.47134 7.86289 4.13134C8.03289 3.99534 8.27089 3.96134 8.44089 3.96134C8.64489 3.96134 8.95089 3.99534 9.08689 4.13134C9.22289 4.26734 9.49489 4.50534 9.56289 4.74334C9.73289 5.21934 10.0729 5.59334 10.2089 6.03534C10.3449 6.40934 10.4809 6.71534 10.4809 6.91934C10.4809 7.19134 10.6509 7.22534 10.7529 7.22534C10.8209 7.22534 10.8549 6.88534 10.8549 6.68134C10.8549 6.10334 11.0589 5.72934 11.0589 5.35534C11.0589 5.21934 11.1609 5.04934 11.1609 5.01534C11.1609 4.53934 11.4329 4.16534 11.7389 3.85934C11.9769 3.62134 12.3169 3.58734 12.5209 3.58734C12.7589 3.58734 12.8949 3.75734 13.0649 3.82534C13.4729 3.99534 13.6429 4.23334 13.9489 4.70934C14.1529 5.01534 14.3909 5.01534 14.5269 5.25334C14.7309 5.69534 15.0029 6.10334 15.2069 6.51134C15.4109 6.91934 15.6489 7.32734 15.8189 7.76934C15.8869 7.93934 15.8529 8.17734 15.8529 8.31334C15.8529 8.48334 16.2609 8.48335 16.2609 9.12934C16.2609 9.63934 15.9889 10.5913 15.3429 10.5913C15.0369 10.5913 14.1869 10.5573 13.9149 9.94534C13.6429 9.36734 13.3369 8.78934 13.2349 8.21134C13.1669 7.76934 12.7589 6.00134 12.7589 6.81734C12.7589 7.66734 12.5209 8.51734 12.5209 9.02734C12.5209 9.09534 12.7249 11.1013 11.5689 11.1013C10.9909 11.1013 10.7529 10.5233 10.4469 10.2173C10.3109 10.0813 10.1749 9.80934 10.0389 9.67334C9.97089 9.60534 9.80089 9.57134 9.69889 9.33334C9.46089 8.82334 9.35889 8.58534 8.81489 8.38134C8.67889 8.34734 8.84889 8.65335 8.84889 8.82335C8.84889 9.12935 8.78089 9.50334 8.78089 9.84334C8.78089 10.1153 8.84889 10.3533 8.95089 10.5573C9.08689 10.7953 8.98489 10.8973 8.98489 11.1693C8.98489 11.2373 8.98489 11.2713 8.98489 11.3053C8.98489 11.4413 9.01889 11.5773 9.08689 11.7473C9.15489 11.8833 9.15489 12.0193 9.15489 12.1213C9.15489 12.4613 8.98489 12.6993 8.57689 12.8693C8.40689 12.9373 8.27089 12.9713 8.13489 12.9713ZM35.9809 28.8493C35.9809 28.0673 36.0149 27.2853 36.0149 26.4693C36.0149 26.2993 36.0149 26.1293 36.0149 25.9593C36.0149 25.6193 35.7769 22.8993 35.6749 22.5253C35.5049 21.9473 35.1309 21.2673 35.1309 20.5193C35.1309 20.4173 35.0629 20.1793 35.0629 20.0093C35.0629 19.8393 34.9269 19.4993 34.9269 19.2273C34.9269 18.2753 35.1649 17.4593 35.1649 16.5753C35.1649 16.0653 35.2669 15.0793 34.9609 15.0453C34.8249 15.0453 34.7229 15.3513 34.5869 15.4873C34.5189 15.5553 34.4509 15.8273 34.1449 15.9973C33.7369 16.2013 33.0909 16.9833 32.4109 17.5613C32.1049 17.7993 31.6629 18.0373 31.3569 18.3093C30.9489 18.6493 30.5749 19.0573 30.0649 19.5333C29.8609 19.7033 29.6569 19.9753 29.3849 20.1113C28.7729 20.4173 28.3309 20.6893 27.9569 21.0973C27.6169 21.4713 27.3789 21.7773 27.0049 21.9813C26.9029 22.0493 26.8349 22.0833 26.8009 22.1173C26.7669 22.1513 26.9029 22.2533 26.9709 22.3213C27.2769 22.6273 27.4469 23.4093 27.8889 23.4093C27.9229 23.4093 27.9569 23.4093 27.9909 23.4433C28.2289 23.6813 28.6369 23.7833 28.9769 23.9193C29.4189 24.0893 29.7589 24.2253 30.1669 24.3613C30.4389 24.4633 30.8129 24.5993 30.9829 24.7693C31.2549 25.0413 31.5949 25.1433 31.9009 25.3133C32.2069 25.4833 32.4789 25.6873 32.7169 25.8913C33.1929 26.2653 33.5669 26.7073 34.0089 27.0473C34.6549 27.5913 35.9809 29.8353 35.9809 28.8493ZM22.0069 9.36734C21.9049 9.36734 21.8029 9.33334 21.7009 9.29935C21.6329 9.26535 21.5649 9.26534 21.4969 9.26534C21.4289 9.26534 21.3609 9.26534 21.3269 9.26534C21.1909 9.26534 21.0549 9.26535 20.9189 9.12934C20.4769 8.58534 20.5789 7.56534 20.5789 6.81734C20.5789 6.74934 20.5789 6.64734 20.5789 6.54534C20.5789 6.44334 20.6129 6.23934 20.5109 6.23934C20.4769 6.23934 20.3749 6.27334 20.1369 6.27334C19.9669 6.27334 19.7969 6.27334 19.6609 6.27334C19.4229 6.27334 19.2189 6.27334 19.2189 6.34134C19.2189 6.81734 18.9129 7.19134 18.9129 7.42934C18.9129 7.53134 18.9129 7.63334 18.9129 7.70135C18.9129 7.80334 18.9129 7.87134 18.9809 7.97334C19.0149 8.00734 19.0149 8.07534 19.0149 8.14334C19.0149 8.27934 18.9809 8.44934 18.9129 8.58534C18.7769 8.92534 18.4709 9.29935 18.0629 9.29935C17.1109 9.29935 16.9749 8.31334 16.8729 8.04134C16.8049 7.87134 16.8049 6.88534 16.8049 6.68134C16.8049 5.83134 17.0089 5.08334 17.2809 4.40335C17.3489 4.26734 17.3149 4.26734 17.3149 4.09734C17.3149 3.72334 17.5189 3.41734 17.5189 3.17934C17.5189 3.00934 17.5189 2.39734 17.6889 2.22734C17.7909 2.12534 17.7569 2.05734 17.7569 1.92134C17.7569 1.34334 18.4709 0.765343 18.8449 0.629345C19.0829 0.527344 19.3549 0.527344 19.5249 0.527344C20.1709 0.527344 20.7149 0.833344 21.1229 1.34334C21.4629 1.81934 21.7009 2.29534 21.9389 2.80534C22.2109 3.41734 22.5509 3.99534 22.8229 4.57334C22.9249 4.77734 22.8569 5.01534 22.8569 5.21934C22.8569 5.79734 22.9589 6.27334 22.9589 6.74934C22.9589 6.81734 23.0269 6.91934 23.0269 7.02134C23.0269 7.12334 22.9929 7.22534 22.9589 7.32734C22.9249 7.39534 22.9249 7.46334 22.9249 7.53135C22.9249 7.73534 22.9929 7.90534 23.0269 8.17735C23.0609 8.27934 23.0609 8.41534 23.0609 8.51734C23.0609 8.92534 22.8569 9.29935 22.4149 9.29935C22.3469 9.29935 22.2109 9.36734 22.0069 9.36734ZM20.4429 4.60734C20.9529 4.60734 20.1709 3.62134 19.8989 3.34934C19.8309 3.28134 19.7289 3.28134 19.6949 3.28134C19.5929 3.28134 19.4229 3.28134 19.4229 3.45134C19.4229 3.68934 19.3549 3.82534 19.3549 3.99534C19.3549 4.16534 19.4229 4.26734 19.4229 4.30134C19.4229 4.64134 20.1369 4.60734 20.4429 4.60734ZM25.6789 9.74134C25.4069 9.74134 25.1349 9.60534 25.0329 9.60534C24.7949 9.60534 24.6249 9.40134 24.5229 9.23134C24.3189 8.89134 24.1149 8.55134 24.1149 7.66734C24.1149 7.39534 24.1829 7.05535 24.1829 6.68134C24.1829 6.40934 24.1829 6.13734 24.1829 5.86534C24.1829 5.32134 24.2849 4.64134 24.2849 4.09734C24.2849 3.99534 24.2169 3.75735 24.2169 3.55334C24.2169 3.34934 24.2509 3.14534 24.2509 2.94134C24.2509 2.80534 24.2169 2.66934 24.1829 2.49934C24.1489 2.43134 24.1489 2.39734 24.1489 2.32934C24.1489 2.12534 24.2849 1.98934 24.4889 1.78534C24.7949 1.47934 24.9309 1.27534 25.2369 1.27534C25.3729 1.27534 25.6109 1.37734 25.9509 1.61534C26.1549 1.78534 26.5969 1.85334 26.5969 2.29534C26.5969 2.94134 26.2909 3.45134 26.2909 4.09734C26.2909 4.26734 26.4269 5.55934 26.4269 5.96734C26.4269 6.40934 26.4269 6.85134 26.4269 7.25934C26.4269 7.56534 26.4269 7.80334 26.5629 8.04134C26.6309 8.14334 26.8349 8.24534 26.7329 8.68734C26.6309 9.23134 26.1549 9.74134 25.6789 9.74134ZM34.6549 9.29935C34.2129 9.29935 33.9409 8.89134 33.8049 8.82335C33.6009 8.75534 32.7509 8.58534 32.4789 8.58534C32.3769 8.58534 32.1729 8.68734 31.9349 8.68734C31.7309 8.68734 31.3909 8.65334 31.1529 8.55134C30.9489 8.44934 30.8469 8.44934 30.7789 8.48335C30.3709 8.58534 30.0649 8.65335 29.8269 8.65335C29.1129 8.65335 29.0449 8.31335 28.9769 8.24534C28.8069 8.07534 28.7729 7.87134 28.7729 7.66734C28.7729 7.05534 28.8069 6.44334 28.8069 5.79735C28.8069 5.55934 28.9089 5.32134 28.9089 5.15134C28.9089 4.87934 28.8069 4.57334 28.8069 4.16534C28.8069 4.09734 28.7389 3.85934 28.8749 3.72334C29.0449 3.55334 29.0449 3.38334 29.0449 3.04334C29.0449 2.77134 29.0109 2.46534 29.0109 2.15934C29.0109 1.85334 29.0449 1.54734 29.1809 1.24134C29.2489 1.03734 29.4189 0.969344 29.6229 0.833344C29.8269 0.697343 30.0649 0.561343 30.3029 0.561343C30.5749 0.561343 30.8129 0.731343 31.0509 0.969344C31.3229 1.24134 31.4589 1.61534 31.4589 1.98934C31.4589 2.15934 31.4589 2.29534 31.4589 2.39734C31.4589 2.73734 31.4929 2.90734 31.4249 3.17934C31.3569 3.51934 31.2549 3.96134 31.2549 4.26734C31.2549 4.70934 31.2549 5.15134 31.2549 5.55934C31.2549 5.76334 31.2549 5.93334 31.2889 6.00134C31.3909 6.20534 31.4589 6.27334 31.5269 6.27334C31.8329 6.27334 32.1389 6.13734 32.6489 6.13734C32.9209 6.13734 33.2609 6.17134 33.5329 6.34134C33.9069 6.61334 34.5529 6.54534 34.9949 6.91934C35.0969 6.98734 35.1649 7.02134 35.4369 7.02134C35.8109 7.02134 35.9469 7.25934 35.9469 7.59934C35.9469 8.27934 35.3349 9.29935 34.6549 9.29935Z" fill="#240909"/>
</svg>
