<svg width="32" height="34" viewBox="0 0 32 34" fill="none" xmlns="http://www.w3.org/2000/svg">
<path d="M12.512 33.1745C12.07 32.9705 11.73 32.6305 11.594 32.1205C11.458 31.5425 11.424 30.9645 11.424 30.4205C11.424 30.0465 11.424 29.6725 11.492 29.2985C11.526 28.9925 11.424 28.6525 11.356 28.3125C11.322 28.2105 11.186 28.1425 11.016 28.1425C10.948 28.1425 10.812 28.2105 10.812 28.2105C10.404 28.6185 10.098 29.1965 9.826 29.8085C9.724 30.0805 9.656 30.4885 9.418 30.7265C9.248 30.8965 8.942 31.0665 8.636 31.0665C8.602 31.0665 8.534 31.0325 8.466 31.0325C7.786 31.0325 7.48 30.2505 7.48 29.6385C7.48 29.4345 7.514 29.2645 7.582 29.0605C7.786 28.6185 7.922 28.2445 8.16 27.8025C8.364 27.3605 8.704 27.0205 8.908 26.6805C9.01 26.5445 8.84 26.4085 8.84 26.3065C8.84 26.2725 8.636 26.3405 8.568 26.4425C8.126 27.0545 7.752 27.7345 7.378 28.3465C7.276 28.5505 7.106 28.7885 6.97 28.9585C6.834 29.1625 6.494 29.2645 6.188 29.2645C5.984 29.2645 5.746 29.1965 5.61 29.0945C5.372 28.9245 5.134 28.5845 5.134 28.2785C5.134 27.9725 5.236 27.5305 5.372 27.2585C5.712 26.5785 6.086 25.9665 6.46 25.2865C6.664 24.9465 6.834 24.7765 6.834 24.5725C6.834 24.2325 6.12 23.3485 5.508 22.9745C4.794 22.5325 4.08 22.2605 3.298 21.8525C3.128 21.7505 2.89 21.7505 2.584 21.7505C2.21 21.7505 1.836 21.7845 1.394 21.7505C0.714 21.7165 0 21.3085 0 20.3905C0 19.8805 0.442 19.2345 0.85 18.8265C1.088 18.5885 1.326 18.5885 1.53 18.5205C2.584 18.0785 3.332 17.3645 3.91 16.4465C4.488 15.4605 5.1 14.4745 5.746 13.5565C6.052 13.0805 6.188 12.8085 6.188 12.6385C6.188 12.4005 5.984 12.2645 5.576 11.9245C4.624 11.1765 4.012 10.1225 3.366 9.17054C3.196 8.93254 3.026 8.52454 3.026 8.18454C3.026 7.91254 3.196 7.53854 3.366 7.36854C3.502 7.23254 3.774 7.13054 4.012 7.13054C4.114 7.13054 4.216 7.13054 4.318 7.16454C4.556 7.30054 4.862 7.47054 5.032 7.74254C5.27 8.04854 5.44 8.49054 5.576 8.72854C6.018 9.47654 6.528 9.98654 7.174 10.4965C7.31 10.6325 7.548 10.5985 7.684 10.4625C8.16 9.98654 8.636 9.81654 8.636 9.44254C8.636 9.00054 8.262 8.59254 8.058 8.04854C7.922 7.64054 7.684 7.19854 7.514 6.82454C7.344 6.45054 7.174 6.07654 7.106 5.66854C7.072 5.29454 7.072 4.81854 7.174 4.44454C7.242 4.13854 7.616 3.76454 7.99 3.76454C8.262 3.76454 8.704 3.93454 8.84 4.13854C9.078 4.47854 9.18 4.92054 9.282 5.26054C9.486 6.04254 9.826 6.79054 10.064 7.19854C10.2 7.40254 10.302 7.47054 10.438 7.33454C10.574 7.19854 10.676 7.13054 10.812 6.99454C11.118 6.68854 11.288 6.45054 11.288 6.07654C11.288 5.97454 11.288 5.87254 11.254 5.73654C11.016 5.02254 10.778 4.30854 10.608 3.52654C10.506 3.15254 10.472 2.77854 10.472 2.37054C10.472 2.09854 10.642 1.82654 10.88 1.58854C10.948 1.52054 11.118 1.41854 11.288 1.41854C11.56 1.41854 11.866 1.62254 12.002 1.89454C12.138 2.16654 12.274 2.43854 12.376 2.71054C12.75 3.66254 13.056 4.61454 13.43 5.53254C13.498 5.70254 13.6 5.77054 13.804 5.77054C14.212 5.77054 15.096 6.11054 15.096 5.66854C15.096 5.02254 15.198 4.44454 15.198 3.90054C15.198 3.45854 15.164 3.01654 15.164 2.57454C15.164 2.16654 15.198 1.75854 15.3 1.35054C15.402 1.04454 15.776 0.772539 16.15 0.772539C16.32 0.772539 16.456 0.840538 16.592 0.976539C16.83 1.21454 17.068 1.24854 17.136 1.58854C17.306 2.30254 17.544 2.88054 17.442 3.66254C17.34 4.34254 17.646 4.95454 17.646 5.53254C17.646 5.73654 17.85 5.77054 17.918 5.77054C18.054 5.77054 18.258 5.63454 18.326 5.36254C18.564 4.54654 18.802 3.35654 19.176 2.16654C19.312 1.79254 19.482 1.41854 19.686 1.07854C19.856 0.772539 20.196 0.602539 20.536 0.602539C20.672 0.602539 20.808 0.636538 20.944 0.704537C21.284 0.874537 21.59 1.28254 21.59 1.72454C21.59 1.99654 21.454 1.92854 21.454 2.33654C21.454 3.22054 21.08 3.15254 20.808 4.88654C20.672 5.80454 20.502 5.97454 20.502 6.11054C20.502 6.34854 20.74 6.58654 21.114 6.34854C21.284 6.24654 21.862 4.58054 22.338 3.52654C22.406 3.35654 22.61 3.08454 22.78 2.94854C23.052 2.71054 23.426 2.71054 23.664 2.71054C24.072 2.71054 24.276 3.01654 24.446 3.32254C24.514 3.49254 24.548 3.69654 24.548 3.90054C24.548 4.20654 24.446 4.47854 24.276 4.71654C23.868 5.32854 23.528 6.00854 23.29 6.68854C23.222 6.85854 23.256 7.02854 23.188 7.30054C23.154 7.50454 23.12 7.70854 23.256 7.84454C23.528 8.11654 23.766 8.35454 24.038 8.59254C24.82 9.20454 25.33 10.0205 25.738 10.8705C26.282 12.0265 26.826 13.2505 27.268 14.4405C27.744 15.6645 28.356 16.6165 29.512 17.1265C29.886 17.2965 30.26 17.5685 30.532 17.7725C30.804 17.9425 30.906 18.2145 31.042 18.3845C31.178 18.5545 31.212 18.7245 31.212 18.9285C31.212 19.3705 30.94 19.8465 30.158 19.8465C28.832 19.8465 28.22 19.9485 25.908 22.2605C25.772 22.3965 25.636 22.7705 25.466 23.1785C25.364 23.3825 25.432 23.5185 25.568 23.6545C25.84 23.9265 25.976 24.3005 26.18 24.6065C26.282 24.7425 26.316 24.9125 26.316 25.0145C26.316 25.2865 26.214 25.5925 26.112 25.7965C26.01 25.9665 25.772 26.0345 25.568 26.0345C25.466 26.0345 25.364 26.0345 25.262 26.0005C24.718 25.7625 24.378 25.3545 24.004 25.3545C23.936 25.3545 23.902 25.5925 24.038 25.7965C24.378 26.3405 24.888 26.9185 25.228 27.4965C25.296 27.5985 25.296 27.7345 25.296 27.8705C25.296 28.0745 25.228 28.2785 25.194 28.3125C24.956 28.5505 24.548 28.6865 24.276 28.6865C24.004 28.6865 23.698 28.4485 23.46 28.2785C23.154 28.0065 22.78 27.6665 22.508 27.3945C22.474 27.3605 22.236 27.3605 22.032 27.3605C21.93 27.3605 21.658 27.6325 21.692 27.7005C21.794 28.1425 21.93 28.5505 22.066 28.9585C22.236 29.5365 21.828 30.1485 21.012 30.1485C20.672 30.1485 20.298 30.0125 20.162 29.7405C19.958 29.3665 19.822 28.9925 19.55 28.6185C19.448 28.4825 19.21 28.3805 19.04 28.3805C18.836 28.3805 17.952 28.4485 17.952 28.7205C17.952 29.1625 18.36 29.5025 18.53 30.1485C18.598 30.4545 18.53 30.8285 18.462 31.1345C18.394 31.4745 17.986 31.7125 17.612 31.7125C17.442 31.7125 17.238 31.6445 17.136 31.5425C16.932 31.3725 16.694 31.2365 16.558 30.9985C16.218 30.3865 15.98 29.7745 15.64 29.1625C15.47 28.8565 15.232 28.7205 14.858 28.7205C14.518 28.7205 14.212 28.7545 13.94 28.7545C13.804 28.7545 13.668 28.8905 13.668 28.9925C13.668 29.7065 13.566 30.3865 13.566 31.0665C13.566 31.2365 13.566 31.4405 13.6 31.6445C13.668 32.0185 13.498 32.2905 13.498 32.5625C13.498 32.9705 12.852 33.3105 12.512 33.1745ZM15.198 26.4765C15.946 26.4765 16.728 26.4085 17.51 26.3065C19.618 26.0685 21.318 25.1165 22.474 23.3145C22.814 22.7365 23.12 22.2945 23.392 21.7845C24.072 20.4925 25.092 19.4385 26.214 18.6225C26.554 18.3845 26.962 18.3505 26.962 18.2485C26.962 18.1125 26.86 17.9085 26.758 17.7725C25.806 16.5145 25.194 15.1205 24.65 13.6585C24.412 13.0125 24.106 12.4345 23.834 11.8225C23.562 11.1765 23.188 10.6665 22.576 10.1905C21.998 9.74854 21.386 9.27254 20.774 8.83054C20.298 8.49054 19.686 8.28654 19.074 8.28654C17.714 8.28654 16.388 8.18454 15.062 8.18454C13.804 8.18454 12.954 8.49054 12.206 9.27254C10.846 10.6665 9.588 12.1965 8.67 13.8285C8.33 14.4745 7.99 15.0185 7.412 15.5965C6.8 16.2085 6.392 16.8885 6.392 17.7045C6.392 17.8745 6.392 18.1125 6.46 18.3165C6.494 18.4865 6.528 18.6565 6.528 18.8265C6.528 19.2685 6.392 19.6765 6.256 20.0845C6.222 20.1865 6.188 20.2885 6.188 20.3905C6.188 20.7305 6.392 21.0025 6.732 21.2745C7.31 21.7505 7.888 22.3285 8.398 22.8045C9.35 23.7225 10.336 24.5725 11.254 25.4565C11.764 25.9325 12.376 26.1705 13.09 26.3065C13.804 26.4085 14.484 26.4765 15.198 26.4765ZM16.898 23.2465C14.824 23.2465 12.954 22.4305 11.594 21.0705C11.22 20.6965 10.914 20.2545 10.846 19.6765C10.778 18.8945 10.778 18.1805 10.676 17.3985C10.472 15.4265 11.288 13.8285 12.478 12.4685C12.784 12.0945 13.26 11.7545 13.736 11.5845C14.178 11.4485 14.552 11.3465 14.858 11.2445C15.504 11.0405 16.15 10.9385 16.728 10.9385C18.428 10.9385 19.89 11.6865 21.216 12.9445C21.454 13.1485 21.624 13.4205 21.76 13.7265C22.304 14.9165 22.644 16.1065 22.644 17.4325C22.644 18.8945 22.134 20.2205 21.284 21.3765C20.978 21.7845 20.434 21.9885 20.06 22.2605C19.074 22.9405 18.02 23.2465 16.898 23.2465ZM16.592 20.8665C18.394 20.8665 20.502 19.2685 20.502 17.3985C20.502 17.0925 20.468 16.7865 20.332 16.4805C20.162 16.1065 20.196 15.8345 20.128 15.5285C19.992 14.9845 19.856 14.4065 19.38 14.0665C18.598 13.4885 17.884 13.2845 17.204 13.2845C16.966 13.2845 16.694 13.3525 16.422 13.4545C15.946 13.6245 15.402 13.8625 14.858 13.8965C14.552 13.9305 14.314 14.1345 14.11 14.3385C13.192 15.2565 12.886 16.4465 12.886 17.6705C12.886 19.5065 13.668 20.2205 15.062 20.6965C15.47 20.8325 15.912 20.8665 16.592 20.8665ZM16.932 19.2005C16.218 19.3025 15.504 19.2005 15.028 18.5205C14.824 18.2145 14.586 17.8405 14.45 17.4665C14.416 17.3305 14.382 17.1945 14.382 17.0585C14.382 16.8885 14.382 16.7185 14.416 16.6165C14.654 15.9025 15.198 15.3585 15.81 15.0865C16.116 14.9505 16.422 14.9165 16.728 14.9165C17.85 14.9165 18.904 15.7665 18.904 17.0925C18.904 17.5685 18.734 18.1125 18.326 18.5205C17.918 18.9285 17.476 19.0985 16.932 19.2005Z" fill="#240909"/>
</svg>
