<svg width="33" height="38" viewBox="0 0 33 38" fill="none" xmlns="http://www.w3.org/2000/svg">
<path d="M3.72609 37.808C3.35209 37.808 2.94409 37.57 2.77409 37.434C2.26409 37.094 1.82209 36.686 1.44809 36.278C1.17609 35.938 1.04009 35.564 0.904094 35.36C0.734094 35.02 0.632094 34.748 0.598094 34.476C0.530094 33.796 0.530094 33.15 0.530094 32.606C0.530094 32.3 0.496094 32.028 0.496094 31.756C0.496094 30.974 0.836094 30.328 0.938094 29.75C1.00609 29.478 1.04009 29.138 1.14209 28.798C1.21009 28.56 1.27809 28.322 1.34609 28.084C1.41409 27.812 1.61809 27.506 1.61809 27.37C1.61809 26.962 1.61809 26.486 1.65209 26.044C1.72009 25.602 1.78809 25.16 1.89009 24.718C2.02609 24.276 2.16209 23.936 2.23009 23.664C2.29809 23.426 2.29809 23.154 2.40009 22.712C2.46809 22.406 2.63809 22.168 2.63809 22.1C2.63809 21.488 2.67209 20.876 2.70609 20.23C2.74009 19.788 2.91009 19.55 2.91009 19.346C2.91009 19.006 2.97809 18.802 2.97809 18.632C2.97809 18.122 2.84209 17.476 2.84209 16.762C2.84209 16.456 2.91009 16.15 2.91009 15.912C2.91009 15.674 2.91009 15.368 2.97809 15.028C3.08009 14.45 3.31809 13.974 3.31809 13.6C3.31809 13.464 2.80809 13.328 2.36609 12.818C2.06009 12.444 1.99209 12.138 1.92409 11.968C1.82209 11.798 1.68609 11.594 1.51609 11.254C1.38009 10.982 1.24409 10.71 1.21009 10.608C1.14209 10.336 1.00609 9.996 0.870094 9.554C0.802094 9.282 0.632094 8.976 0.632094 8.602C0.632094 8.398 0.700094 8.092 0.700094 7.956C0.700094 7.752 0.598094 7.48 0.598094 7.038C0.598094 6.596 0.666094 6.188 0.666094 5.78C0.666094 5.44 0.666094 4.998 0.768094 4.556C0.836094 4.284 1.00609 3.978 1.07409 3.774C1.17609 3.536 1.27809 3.264 1.41409 2.958C1.58409 2.618 1.72009 1.938 2.19609 1.462C2.33209 1.326 2.50209 1.088 2.74009 0.850001C3.08009 0.510002 3.65809 0 4.37209 0C5.01809 0 5.46009 0.340002 5.83409 0.442C6.17409 0.544001 6.41209 0.578001 6.58209 0.578001C6.95609 0.578001 7.33009 0 7.90809 0C8.48609 0 9.06409 0.102001 9.57409 0.272001C9.84609 0.340002 9.88009 0.680001 10.1861 0.680001C10.4581 0.680001 10.7981 0.612 11.2061 0.612C11.5461 0.612 11.8861 0.612 12.2261 0.612C13.3481 0.612 14.6061 1.666 14.6061 2.856C14.6061 3.196 14.5041 3.468 14.6741 3.57C14.9801 3.74 15.4221 3.57 15.9321 3.706C16.2721 3.774 16.4761 3.91 16.7141 4.012C16.8841 4.08 17.3941 4.284 17.5641 4.454C17.9721 4.862 18.4481 5.236 18.8221 5.78C19.0941 6.154 19.2981 6.562 19.2981 7.038C19.2981 7.65 19.2981 8.228 19.2981 8.772C19.2981 9.214 19.0601 9.418 18.9581 9.656C18.8221 9.962 18.8221 10.234 18.7541 10.472C18.6861 10.846 18.6181 11.118 18.4141 11.39C18.1421 11.832 17.8361 12.308 17.4621 12.682C17.2921 12.852 17.1561 13.09 16.8841 13.294C16.5441 13.532 16.1701 13.736 15.8981 13.838C15.0481 14.212 14.3001 14.416 13.5521 14.654C13.1781 14.756 12.8381 14.756 12.4981 14.756C12.3961 14.756 12.1241 14.892 11.9541 14.926C11.6821 14.96 11.4101 14.96 11.1721 14.96C11.0021 14.96 10.8661 14.96 10.7301 14.96C10.3901 14.96 10.0841 14.96 9.84609 15.096C9.67609 15.198 9.71009 15.606 9.50609 16.15C9.43809 16.388 9.40409 16.626 9.37009 16.83C9.33609 17.136 9.30209 17.374 9.30209 17.578C9.30209 17.952 9.13209 18.258 9.13209 18.496C9.13209 18.768 9.06409 19.04 9.06409 19.278C9.06409 19.584 9.03009 19.856 9.03009 20.128C9.03009 20.842 8.89409 21.454 8.89409 21.964C8.89409 22.168 8.99609 22.474 8.99609 22.814C8.99609 23.12 8.86009 23.494 8.86009 23.63C8.86009 24.174 8.55409 24.582 8.52009 24.922C8.45209 25.33 8.48609 25.67 8.48609 26.112C8.48609 26.452 8.35009 26.724 8.35009 26.86C8.35009 27.098 8.38409 27.336 8.38409 27.54C8.38409 27.948 8.18009 28.662 8.48609 28.662C8.75809 28.662 8.92809 28.458 9.20009 28.356C9.40409 28.322 9.5741 28.288 9.74409 28.288C10.0501 28.288 10.3561 28.356 10.4581 28.254C10.5941 28.118 10.6621 27.71 10.6621 27.234C10.6621 26.928 10.7301 26.622 10.7641 26.418C10.7981 25.908 10.8321 25.296 10.9341 24.684C10.9681 24.514 11.0021 24.174 11.1381 23.834C11.2741 23.562 11.3761 23.29 11.5121 22.95C11.5801 22.78 11.6481 22.474 11.7841 22.1C11.9201 21.794 12.0901 21.522 12.1581 21.284C12.2941 20.842 12.3281 20.264 12.6341 19.652C12.8041 19.312 13.1101 19.074 13.3481 18.836C13.7901 18.394 14.1981 17.952 14.6741 17.476C15.2521 16.864 16.0001 17.034 16.6801 16.83C16.9521 16.762 17.2581 16.592 17.5981 16.49C18.0741 16.388 18.6521 16.15 19.2641 16.15C19.8421 16.15 20.4201 16.218 21.0321 16.218C21.4401 16.218 21.7461 16.354 22.0181 16.422C22.2221 16.49 22.4941 16.524 22.8681 16.694C23.2421 16.864 23.5141 17.068 23.7521 17.204C24.0581 17.374 24.2961 17.612 24.5341 17.748C25.0101 18.054 25.4861 18.394 25.8261 18.836C26.2341 19.346 26.3701 20.026 26.5401 20.434C26.7101 20.842 26.7101 21.182 26.7781 21.42C26.8801 21.794 27.0841 22.1 27.0841 22.372C27.0841 22.644 27.2201 23.018 27.2201 23.358C27.2201 23.8 27.1521 24.616 27.2881 24.752C27.5601 25.024 27.5941 24.412 28.0021 24.446C28.5461 24.48 28.9881 24.106 29.4981 23.97C29.8041 23.902 30.2801 23.766 30.7561 23.766C31.0961 23.766 31.6401 23.766 32.1161 24.004C32.5241 24.242 32.6601 24.752 32.6601 25.092C32.6601 25.534 32.3541 25.874 32.0141 25.976C31.5381 26.146 31.1641 26.044 30.7901 26.044C30.7221 26.044 30.4161 26.248 30.1441 26.35C29.8721 26.486 29.6681 26.554 29.4981 26.622C29.1581 26.792 28.8521 26.928 28.5801 27.064C28.2061 27.234 27.9681 27.268 27.7981 27.336C27.4921 27.472 27.0841 27.88 26.5741 27.88C26.3021 27.88 25.4521 27.88 25.1461 27.676C24.7041 27.37 24.7381 26.928 24.6701 26.418C24.6021 26.044 24.5341 25.636 24.5341 25.194C24.5341 24.888 24.5341 24.548 24.5341 24.208C24.5341 23.63 24.7041 23.086 24.7041 22.814C24.7041 22.508 24.5341 22.372 24.3981 21.964C24.2961 21.658 24.2281 21.352 24.1261 21.046C23.9901 20.638 23.8201 20.332 23.5821 19.992C23.4121 19.72 23.1401 19.584 22.8341 19.346C22.2561 18.87 21.5421 18.836 21.1001 18.734C20.5561 18.632 20.1821 18.462 19.8081 18.462C19.3661 18.462 18.9921 18.734 18.3801 18.904C18.2101 18.972 18.0061 19.142 17.7341 19.244C17.1561 19.482 16.5781 19.482 16.2381 19.618C16.1021 19.686 16.0001 19.822 15.7621 20.06C15.4221 20.4 15.2181 20.638 15.0481 20.91C14.8781 21.25 14.7761 21.624 14.6741 21.964C14.5721 22.236 14.5381 22.61 14.3681 22.984C14.1641 23.392 14.0281 23.596 13.9941 23.698C13.8581 24.004 13.7561 24.174 13.7561 24.412C13.7561 24.684 13.6541 25.024 13.5521 25.398C13.4501 25.772 13.3481 26.078 13.2801 26.316C13.1781 26.826 13.1101 27.302 13.0421 27.778C13.0081 28.152 12.8381 28.39 12.8381 28.662C12.8381 28.968 12.8381 30.056 12.4641 30.43C12.0561 30.838 11.5121 30.872 11.0701 30.872C10.8321 30.872 10.6281 30.94 10.4581 30.94C10.2201 30.94 9.88009 31.076 9.50609 31.076C9.16609 31.076 8.86009 31.076 8.58809 31.076C8.52009 31.076 8.21409 31.246 8.01009 31.28C7.56809 31.382 7.12609 31.416 6.75209 31.416C6.41209 31.416 6.10609 31.178 5.86809 30.906C5.59609 30.6 5.49409 30.158 5.49409 29.852C5.49409 29.376 5.69809 29.002 5.69809 28.73C5.69809 28.424 5.69809 28.118 5.73209 27.744C5.76609 27.37 5.90209 27.064 5.90209 26.826C5.90209 26.554 5.86809 26.248 5.86809 25.942C5.86809 25.262 6.00409 24.65 6.07209 24.038C6.10609 23.664 6.24209 23.46 6.24209 23.29C6.24209 23.018 6.27609 22.746 6.27609 22.44C6.27609 22.168 6.34409 21.93 6.34409 21.76C6.34409 21.488 6.34409 21.182 6.34409 20.876C6.34409 20.604 6.34409 20.332 6.37809 20.026C6.41209 19.618 6.54809 19.38 6.54809 19.176C6.54809 18.598 6.61609 18.088 6.61609 17.578C6.61609 17.272 6.61609 16.966 6.68409 16.592C6.75209 16.014 6.82009 15.47 6.95609 14.892C7.05809 14.552 7.26209 14.212 7.29609 13.906C7.33009 13.294 7.53409 12.138 8.35009 12.138C8.65609 12.138 9.13209 12.24 9.64209 12.342C9.94809 12.41 10.2541 12.614 10.4241 12.614C10.5941 12.614 10.6961 12.444 11.0021 12.444C11.2741 12.444 11.5461 12.478 11.8181 12.478C11.9881 12.478 12.2261 12.41 12.5321 12.342C12.7701 12.308 12.9741 12.274 13.2461 12.172C13.4501 12.07 13.6541 11.968 13.8581 11.866C14.4361 11.628 14.8101 11.22 15.2181 11.22C15.4901 11.22 15.6601 11.084 15.8641 10.88C16.0001 10.744 16.1361 10.574 16.2381 10.336C16.4761 9.826 16.7141 9.452 16.7141 9.078C16.7141 8.738 16.8161 8.432 16.8161 8.296C16.8161 8.126 16.8161 7.174 16.7141 7.004C16.5781 6.732 16.3401 6.63 15.9661 6.426C15.4901 6.154 15.1161 5.984 14.7421 5.984C14.6061 5.984 14.3681 6.188 14.1641 6.392C13.8921 6.664 13.8921 7.174 13.7221 7.616C13.5521 8.058 13.7561 8.738 13.2801 9.214C13.2121 9.282 13.0761 9.452 12.8721 9.656C12.7361 9.792 12.5321 9.894 12.3281 9.894C11.7501 9.894 11.1041 9.384 11.1041 8.806C11.1041 8.33 11.1041 7.854 11.1721 7.378C11.2061 7.14 11.2741 6.868 11.3081 6.562C11.3421 6.018 11.4101 5.542 11.5121 5.066C11.6141 4.726 11.7501 4.454 11.7841 4.216C11.8181 3.74 12.1241 3.672 11.8521 3.57C11.5801 3.468 11.5801 3.196 11.2401 3.536C11.0361 3.74 10.8321 3.876 10.7641 4.012C10.4921 4.454 10.4581 4.964 10.3221 5.508C10.2201 5.916 10.0841 6.188 10.0841 6.392C10.0841 6.868 10.2201 7.378 10.2201 7.956C10.2201 8.33 10.1521 8.602 10.1521 8.772C10.1521 9.214 10.0501 9.622 10.0501 9.894C10.0501 10.472 9.50609 10.676 9.03009 10.676C8.52009 10.676 8.04409 10.2 7.90809 9.758C7.73809 9.18 7.80609 8.704 7.80609 8.262C7.80609 8.092 7.73809 7.82 7.73809 7.446C7.73809 7.31 7.60209 6.97 7.60209 6.528C7.60209 5.882 7.73809 5.338 7.73809 4.76C7.73809 4.59 7.77209 4.284 7.90809 3.91C8.04409 3.434 8.38409 3.128 8.38409 2.924C8.38409 2.686 8.11209 2.89 7.94209 2.89C7.70409 2.89 7.73809 3.128 7.56809 3.434C7.29609 3.91 7.22809 4.352 7.12609 4.828C7.05809 5.134 7.02409 5.372 7.02409 5.61C7.02409 5.916 7.02409 6.188 7.02409 6.46C7.02409 6.698 7.09209 6.97 7.09209 7.242C7.09209 7.684 7.16009 8.092 7.16009 8.534C7.16009 8.908 6.92209 9.35 6.65009 9.622C6.51409 9.758 5.97009 9.826 5.90209 9.826C5.39209 9.826 5.05209 9.418 4.88209 9.01C4.71209 8.602 4.57609 8.16 4.57609 7.752C4.57609 7.14 4.74609 6.63 4.74609 6.188C4.74609 5.916 4.71209 5.644 4.71209 5.338C4.71209 4.998 4.91609 4.658 4.91609 4.488C4.91609 4.08 4.91609 3.808 4.91609 3.366C4.91609 3.162 5.05209 2.992 4.98409 2.924C4.91609 2.856 4.71209 3.026 4.57609 3.128C4.23609 3.366 4.16809 3.74 3.89609 3.944C3.69209 4.08 3.72609 4.386 3.59009 4.76C3.45409 5.066 3.42009 5.304 3.38609 5.508C3.28409 6.12 3.21609 6.698 3.14809 7.242C3.11409 7.786 3.11409 8.296 3.11409 8.772C3.11409 9.01 3.21609 9.214 3.35209 9.554C3.38609 9.656 3.55609 9.826 3.72609 10.2C3.89609 10.608 3.96409 10.914 4.13409 11.118C4.64409 11.866 5.86809 12.274 5.86809 13.464C5.86809 14.042 5.63009 14.62 5.63009 14.96C5.63009 15.266 5.66409 15.572 5.66409 15.844C5.66409 16.082 5.46009 16.286 5.46009 16.524C5.46009 16.728 5.59609 17.17 5.59609 17.408C5.59609 18.054 5.49409 18.632 5.49409 19.176C5.49409 19.754 5.35809 20.196 5.35809 20.57C5.35809 21.216 5.18809 21.726 5.15409 22.134C5.12009 22.44 5.12009 22.644 5.12009 22.916C5.12009 23.392 4.98409 23.732 4.91609 23.97C4.78009 24.48 4.61009 24.99 4.50809 25.466C4.37209 25.976 4.20209 26.384 4.13409 26.758C3.99809 27.37 3.93009 27.948 3.82809 28.492C3.79409 28.798 3.79409 29.07 3.79409 29.342C3.79409 29.682 3.72609 29.886 3.72609 30.022C3.72609 30.498 3.42009 30.77 3.42009 30.94C3.42009 31.45 3.31809 31.926 3.21609 32.504C3.18209 32.81 2.97809 33.116 2.97809 33.15C2.97809 33.252 3.08009 33.388 3.18209 33.728C3.31809 34.306 3.31809 34.816 3.59009 35.054C3.62409 35.088 3.82809 35.122 4.10009 35.122C4.44009 35.122 4.81409 34.986 5.35809 34.918C5.63009 34.884 5.93609 34.782 6.37809 34.782C6.54809 34.782 6.85409 34.612 7.22809 34.612C7.53409 34.612 7.84009 34.646 8.18009 34.646C8.35009 34.646 8.52009 34.544 8.86009 34.476C9.09809 34.408 9.47209 34.408 9.81209 34.408C10.0161 34.408 10.3221 34.272 10.7641 34.204C11.6141 34.068 12.3621 34.034 13.1441 33.932C13.4161 33.898 13.7561 33.728 14.1641 33.728C14.4021 33.728 14.6741 33.728 14.9461 33.728C15.2521 33.728 15.3881 33.456 15.5921 33.456C15.8641 33.456 16.1701 33.456 16.4761 33.456C16.8161 33.456 17.0881 33.524 17.2921 33.524C17.4621 33.524 17.7681 33.354 18.1761 33.286C18.8561 33.15 19.5021 32.98 20.1821 33.014C21.2021 33.048 21.4741 32.776 21.7461 32.708C22.0861 32.606 22.3581 32.572 22.5621 32.538C23.1401 32.402 23.6501 32.028 24.2961 32.028C24.4661 32.028 24.6021 31.96 24.8741 31.858C25.1121 31.79 25.3501 31.654 25.6221 31.586C26.0301 31.518 26.3361 31.552 26.5401 31.484C26.7101 31.45 27.0501 31.178 27.5261 31.178C27.6961 31.178 27.8661 31.178 28.0361 31.144C28.2401 31.076 28.5121 30.94 28.8181 30.872C29.2941 30.736 29.8721 30.498 30.5521 30.498C30.9261 30.498 31.3001 30.532 31.6741 30.532C32.1501 30.532 32.5921 30.94 32.5921 31.28C32.5921 31.62 32.4901 31.892 32.4901 32.13C32.4901 32.47 32.0821 32.674 31.6741 32.81C31.1641 32.98 30.7901 33.116 30.4841 33.116C30.3141 33.116 30.0421 33.252 29.8381 33.286C29.4981 33.354 29.1581 33.422 28.8521 33.422C28.3421 33.422 27.8661 33.66 27.3221 33.796C27.0161 33.864 26.7441 33.966 26.3701 34.068C25.9961 34.17 25.7241 34.102 25.5201 34.17C25.1121 34.306 24.6361 34.646 24.0241 34.816C23.5141 34.952 23.0041 34.986 22.5961 34.986C22.3241 34.986 22.0861 34.986 21.8481 34.986C21.7461 34.986 21.5761 35.156 21.2021 35.292C20.6581 35.462 20.1821 35.53 19.7061 35.632C18.8901 35.802 18.0061 36.006 17.1221 36.006C16.8841 36.006 16.6461 36.006 16.4421 36.006C16.2041 36.006 15.9321 36.074 15.5921 36.074C15.2181 36.074 14.9461 36.04 14.7761 36.074C14.2661 36.108 13.7901 36.142 13.3481 36.244C13.0081 36.312 12.7361 36.516 12.3281 36.516C12.0221 36.516 11.8181 36.516 11.6481 36.55C10.9681 36.652 10.1521 37.026 9.33609 37.026C9.09809 37.026 8.96209 37.094 8.75809 37.128C8.18009 37.196 7.60209 37.162 7.05809 37.23C6.71809 37.264 6.48009 37.468 6.10609 37.468C5.80009 37.468 5.52809 37.468 5.29009 37.468C4.88209 37.468 4.37209 37.808 3.72609 37.808ZM21.9501 13.6C21.5761 13.6 21.1341 13.396 20.8281 13.09C20.6241 12.886 20.5901 12.648 20.5901 12.376C20.5901 11.866 20.7601 11.526 20.9301 11.118C21.0661 10.778 21.1681 10.472 21.3041 10.234C21.3381 10.166 21.9501 9.078 22.3581 9.078C22.4941 9.078 22.6301 9.078 22.8001 9.078C23.3781 9.078 23.7181 9.69 23.7181 10.166C23.7181 10.71 23.5821 11.118 23.5821 11.424C23.5821 11.866 23.3441 12.138 23.1401 12.342C22.8001 12.682 22.3921 13.6 21.9501 13.6ZM24.4661 14.892C24.1941 14.892 23.9561 14.688 23.6841 14.416C23.4121 14.178 23.1741 13.838 23.1741 13.464C23.1741 12.818 23.6501 12.478 23.8881 12.104C24.0241 11.866 24.2621 11.56 24.5341 11.288C24.9081 10.914 25.2821 10.54 25.8601 10.54C26.5061 10.54 27.1521 10.846 27.1521 11.492C27.1521 12.308 26.5741 12.716 26.3701 13.056C26.2001 13.328 26.0301 13.6 25.7241 13.906C25.3841 14.246 25.1801 14.416 24.9421 14.654C24.8061 14.79 24.6021 14.892 24.4661 14.892ZM26.1321 16.864C25.9961 16.864 25.8941 16.864 25.8261 16.796C25.5881 16.592 25.0101 15.946 25.0101 15.64C25.0101 15.028 25.4181 14.79 25.9281 14.382C26.2341 14.11 26.7101 13.838 27.2541 13.6C27.6961 13.43 28.2741 13.022 28.9881 13.022C29.7361 13.022 30.0761 13.736 29.9401 14.552C29.8381 15.096 29.3961 14.994 29.2941 15.3C29.1241 15.776 28.5801 15.878 28.2061 16.116C27.9341 16.32 27.7301 16.592 27.4921 16.592C27.4581 16.592 26.6081 16.864 26.1321 16.864Z" fill="#240909"/>
</svg>
