<svg width="180" height="32" viewBox="0 0 180 32" fill="none" xmlns="http://www.w3.org/2000/svg">
<path d="M160.24 30.7357C159.9 30.7357 159.696 30.6677 159.492 30.5997C159.356 30.5317 159.186 30.4637 159.016 30.4637C158.778 30.4637 158.506 30.3957 158.268 30.3957C157.894 30.3957 157.554 30.3957 157.248 30.2257C155.854 29.5457 154.8 28.5597 154.188 27.1317C153.78 26.1457 153.746 26.0437 153.746 24.4457C153.746 22.5077 154.222 22.4397 154.222 20.5017C154.222 20.0597 154.29 19.5837 154.562 19.2437C155.038 18.6997 155.174 17.9517 155.31 17.1697C155.378 16.6257 155.48 16.0817 155.718 15.5377C155.82 15.2657 155.888 14.9597 155.956 14.6537C156.058 14.2457 156.16 13.8037 156.398 13.3957C156.738 12.7837 156.772 12.4437 156.84 12.0697C156.874 11.7297 156.942 11.4237 157.214 10.8457C157.316 10.6417 157.35 10.4377 157.35 10.3017C157.35 10.0977 157.35 9.96171 157.486 9.75771C157.69 9.45171 157.826 9.24771 157.894 8.94171C158.132 8.05771 158.404 7.07171 159.118 6.42571C159.662 5.94971 159.968 5.43971 160.274 4.92971C160.648 4.28371 161.056 3.63771 162.008 3.12771C162.382 2.92371 162.62 2.68571 162.824 2.48171C163.13 2.17571 163.402 1.93771 163.98 1.80171C164.218 1.73371 164.49 1.63171 164.762 1.49571C165.034 1.39371 165.306 1.29171 165.544 1.22371C165.986 1.08771 166.462 1.05371 166.938 1.05371C167.312 1.05371 168.332 1.29171 168.706 1.46171C169.216 1.15571 169.726 1.12171 170.304 1.35971C170.848 1.59771 171.086 2.17571 172.072 2.44771C172.786 2.65171 172.922 3.36571 173.636 3.77371C173.942 3.94371 174.282 4.11371 174.554 4.75971C174.792 5.30371 175.2 5.74571 175.54 6.15371C175.744 6.39171 175.948 6.59571 176.152 6.86771C176.186 6.93571 176.254 7.00371 176.356 7.10571C176.662 7.41171 177.138 7.88771 177.478 8.83971C177.682 9.38371 177.92 9.72371 178.158 10.0297C178.43 10.3697 178.6 10.6417 178.6 11.1177C178.6 11.3897 178.634 11.5937 178.77 11.7977C179.008 12.2057 179.144 13.0897 179.178 13.4297C179.246 14.0757 179.688 14.7217 179.688 15.1637C179.688 15.6057 179.348 15.9797 179.518 16.3877C179.79 16.9997 179.824 17.7137 179.824 18.3597C179.824 18.8697 179.756 19.3797 179.654 19.8557C179.518 20.3997 179.45 21.0457 179.45 21.6577C179.45 21.8617 179.45 22.0657 179.45 22.2697C179.45 22.8477 179.314 23.3237 179.076 23.8677C178.94 24.2077 178.77 24.5477 178.634 24.8877C178.43 25.3977 178.226 25.8737 177.954 26.3837C177.614 27.0297 177.104 27.6077 176.254 27.8457C176.05 27.9137 175.88 28.0497 175.71 28.1857C175.472 28.3897 175.268 28.5597 174.928 28.5597C174.316 28.5597 173.874 28.7297 173.466 28.8997C173.126 29.0357 172.82 29.1717 172.446 29.1717C172.004 29.1717 171.596 29.0017 171.154 28.8317C170.78 28.6617 170.372 28.4917 169.964 28.4577C169.25 28.3897 168.978 28.0497 168.57 27.6417C168.468 27.5057 168.298 27.3357 168.196 27.2337C167.924 26.9617 167.686 26.5537 167.754 25.8397C167.754 25.7717 167.754 25.7037 167.754 25.6017C167.754 25.2957 167.686 25.0577 167.618 24.8197C167.55 24.5477 167.482 24.2757 167.482 23.9357C167.482 23.0857 167.788 22.8477 167.788 21.8277C167.788 21.3857 167.652 20.9777 167.55 20.5697C167.448 20.1957 167.414 19.8217 167.346 19.4477C167.278 19.0397 167.006 18.9377 166.632 18.9717C166.054 19.0397 166.054 19.6857 165.748 20.7737C165.476 21.6577 165.714 22.4397 165.952 23.3237C166.054 23.7317 166.088 23.9697 166.088 24.1737C166.088 24.6157 165.918 24.8537 166.02 25.2277C166.088 25.5337 166.19 25.7377 166.19 25.9417C166.19 26.3837 165.986 26.7577 165.714 27.0297C165.306 27.4377 165.068 27.9137 164.898 28.2877C164.66 28.7637 164.49 29.0697 164.15 29.1377C163.64 29.2057 163.368 29.4777 163.164 29.6817C162.994 29.8517 162.756 30.0557 162.348 30.0897C161.872 30.1237 162.008 30.7697 160.954 30.6337C160.682 30.5997 160.512 30.7357 160.24 30.7357ZM160.478 27.7777C161.226 27.7777 162.076 27.1317 162.484 26.7237C162.722 26.4857 162.994 26.0437 162.994 25.5677C162.994 25.4657 162.994 25.3637 162.96 25.2277C162.892 24.9897 162.858 24.8197 162.858 24.6837C162.858 24.5137 162.892 24.4117 162.892 24.2757C162.892 24.1397 162.96 23.9697 162.96 23.7997C162.96 23.6297 162.926 23.3917 162.858 23.0857C162.722 22.5417 162.654 22.1677 162.654 21.8277C162.654 21.2837 163.062 20.6717 163.13 19.8217C163.164 19.3117 163.368 18.6657 163.572 18.1217C163.81 17.5097 164.354 17.3737 165 16.9997C165.544 16.6937 165.918 16.2177 166.632 16.2177C167.108 16.2177 167.346 16.5917 167.856 16.6937C168.4 16.7957 168.944 16.7957 169.556 17.7137C170.236 18.7677 170.372 18.9377 170.372 19.5837C170.372 19.7537 170.372 19.9577 170.406 20.1957C170.44 20.5017 170.508 20.8077 170.61 21.0797C170.712 21.4197 170.814 21.7597 170.814 22.1337C170.814 22.3377 170.78 22.5077 170.712 22.7457C170.61 23.0517 170.542 23.4597 170.542 23.7657C170.542 23.9697 170.576 24.1737 170.644 24.3437C170.712 24.5137 170.746 24.6157 170.746 24.7857C170.746 24.9557 170.678 25.2617 170.678 25.3637C170.678 25.6017 170.78 25.8057 171.324 26.0437C171.426 26.0777 171.528 26.1117 171.664 26.1797C171.834 26.2477 172.106 26.4177 172.344 26.4177C172.548 26.4177 172.786 26.2817 172.956 26.1797C173.126 26.0777 173.296 26.0097 173.738 25.9077C174.86 25.6017 175.302 25.2617 175.472 24.7177C175.574 24.3437 175.778 24.0037 175.948 23.7317C176.288 23.2557 176.39 22.6097 176.39 21.8957C176.39 21.7257 176.39 21.5897 176.39 21.4197C176.39 21.1137 176.39 20.7737 176.492 20.5017C176.628 20.0937 176.662 19.7537 176.662 19.5157C176.662 19.3457 176.628 19.2097 176.628 19.0737C176.628 18.9377 176.594 18.8357 176.594 18.6997C176.594 18.5297 176.628 18.3937 176.696 18.1557C176.798 17.8497 176.832 17.5777 176.832 17.4077C176.832 17.1697 176.764 16.9997 176.696 16.8637C176.594 16.7277 176.526 16.5577 176.526 16.2177C176.526 15.3337 176.424 14.8577 176.254 14.3477C176.118 13.9737 175.982 13.4637 175.982 13.0217C175.982 12.3417 175.812 11.9337 175.574 11.5257C175.37 11.1857 175.234 10.8797 175.2 10.4037C175.132 9.38371 174.792 9.07771 174.35 8.73771C174.044 8.49971 173.738 8.22771 173.364 7.61571C173.16 7.27571 172.922 6.93571 172.65 6.66371C172.514 6.52771 172.412 6.39171 172.31 6.25571C171.902 5.64371 171.188 4.86171 170.1 4.48771C168.638 5.33771 167.958 3.90971 167.176 3.90971C166.292 3.90971 165.986 4.11371 165.17 4.55571C164.966 4.69171 164.762 4.75971 164.592 4.86171C164.116 5.09971 163.776 5.26971 163.572 5.71171C163.062 6.90171 162.552 7.34371 162.178 7.64971C161.872 7.92171 161.634 8.15971 161.634 8.60171C161.634 8.87371 161.6 8.97571 161.362 9.21371C161.09 9.48571 160.92 9.72371 160.784 10.1317C160.682 10.4037 160.58 10.6757 160.444 10.9817C160.07 11.7297 160.002 11.9337 160.002 12.4437C160.002 12.9537 159.492 13.2937 159.492 14.1097C159.492 14.5177 159.356 14.7217 159.152 15.1297C158.778 15.8777 158.2 16.8637 158.03 18.5637C157.962 19.1077 157.86 19.5157 157.656 19.9917C157.282 20.9097 156.806 21.9977 156.806 23.1877C156.806 24.1057 157.01 24.2757 157.01 25.2957C157.01 26.1797 157.214 26.8937 157.928 27.2337C158.234 27.3697 158.54 27.3017 158.778 27.3017C159.152 27.3017 159.458 27.4377 159.934 27.6757C160.104 27.7437 160.308 27.7777 160.478 27.7777ZM169.216 12.6477C168.264 12.6477 167.414 12.4437 167.006 11.1177C166.802 10.4377 167.176 10.1317 167.618 9.21371C167.924 8.60171 168.604 8.36371 169.08 8.49971C169.318 8.56771 169.522 8.60171 169.76 8.63571C170.61 8.80571 171.188 9.04371 171.46 10.1657C171.596 10.7097 171.154 11.4577 170.61 12.0017C170.202 12.4097 169.692 12.6477 169.216 12.6477Z" fill="#240909"/>
<path d="M131.835 28.3901C131.053 28.3901 130.339 27.8461 130.237 26.9961C130.203 26.8261 130.203 26.6901 130.203 26.5201C130.203 26.0781 130.271 25.6361 130.577 25.1941C130.679 25.0241 130.713 24.6161 130.713 24.0721C130.713 22.9501 130.577 21.3181 130.577 20.1621C130.577 19.7541 130.577 19.4141 130.645 19.1761C130.849 18.3601 130.917 17.7481 130.917 17.2041C130.917 16.4901 130.815 15.9121 130.815 15.2321C130.815 14.1101 131.121 12.9541 131.121 11.7641C131.121 11.3901 131.087 10.9821 130.985 10.5741C130.815 9.86012 130.883 9.14612 130.883 8.36412C130.883 8.05812 130.815 7.75212 130.713 7.51412C130.543 7.03812 130.441 6.59612 130.441 6.15412C130.441 5.47412 130.577 4.31812 131.291 4.04612C131.665 3.91012 132.005 3.87612 132.311 3.87612H132.651C132.923 3.87612 133.195 3.87612 133.399 3.74012C134.249 3.26412 135.167 2.92412 136.153 2.55012C136.935 2.27812 137.445 2.21012 137.887 2.21012C138.533 2.21012 138.975 2.31212 139.757 1.93812C139.893 1.87012 140.029 1.87012 140.131 1.87012C140.539 1.87012 140.981 2.07412 141.355 2.17612C141.695 2.24412 142.069 2.38012 142.375 2.38012C142.579 2.38012 142.817 2.51612 142.885 2.58412C143.225 2.92412 143.769 2.99212 144.313 3.19612C145.401 3.57012 145.333 3.97812 146.183 4.31812C148.461 5.20212 147.611 5.88212 149.515 6.59612C150.127 6.83412 150.263 7.48012 150.501 7.92212C150.671 8.26212 150.875 8.56812 151.079 8.87412C151.351 9.28212 151.657 9.69012 151.793 10.2001C151.895 10.6421 151.929 11.0841 152.167 11.5261C152.711 12.5461 152.677 13.2261 152.677 13.6681C152.677 14.2121 152.507 14.4841 152.507 14.9941C152.507 15.3001 152.541 15.6401 152.711 16.1501C152.779 16.3201 152.779 16.4561 152.779 16.6261C152.779 17.1361 152.609 17.6461 152.473 18.1561C152.235 19.0741 151.793 19.9581 151.215 20.8081C151.011 21.0801 150.841 21.3521 150.909 21.7261C151.011 22.3041 150.671 22.6441 150.331 22.8481C149.209 23.4941 149.243 24.5821 148.427 25.0581C147.883 25.3641 147.339 25.8741 146.795 26.2481C146.591 26.4181 146.455 26.5201 146.183 26.6901C145.571 27.0981 144.857 27.3021 144.177 27.4381C143.123 27.6761 143.361 27.9821 142.579 28.1181C141.797 28.2541 140.947 28.2881 140.165 28.2881C139.043 28.2881 137.683 27.5401 135.711 27.6081C134.827 27.6421 133.093 28.3901 131.835 28.3901ZM133.433 25.1601C135.065 24.6841 135.609 24.4801 136.799 24.4801C138.703 24.4801 139.417 25.2961 141.389 25.2281C142.647 25.1941 143.225 24.5141 144.449 24.1401C145.333 23.8681 145.775 23.5621 146.081 22.8481C146.999 20.8761 147.815 21.4541 148.529 19.8221C148.801 19.2101 148.869 18.4961 149.175 17.8841C149.413 17.4081 149.447 17.0681 149.447 16.8301C149.447 16.5581 149.413 16.3881 149.413 16.1841C149.413 16.0481 149.413 15.9121 149.481 15.7081C149.617 15.1981 149.685 14.8241 149.685 14.5181C149.685 14.0421 149.413 13.7701 149.379 13.2261C149.345 12.4441 148.971 12.1721 148.869 11.3561C148.835 10.9821 148.801 10.6761 148.495 10.2001C147.985 9.31612 147.305 7.95612 146.115 7.54812C145.129 7.20812 144.993 6.49412 143.701 6.01812C141.967 5.44012 142.545 4.86212 139.723 4.86212C139.519 4.86212 139.281 4.89612 139.077 4.89612C138.873 4.89612 138.669 4.89612 138.465 4.93012C137.921 4.96412 137.445 5.10012 136.765 5.47412C135.881 5.95012 135.201 6.18812 133.875 6.73212C134.011 7.41212 134.181 8.73812 134.181 9.75812C134.181 10.5401 134.079 11.3221 133.943 12.1041C133.875 12.4101 133.807 12.7501 133.807 13.0561C133.807 13.3621 133.841 13.6341 133.943 13.8721C134.079 14.3141 134.181 14.7221 134.181 15.1641C134.181 15.5041 134.113 15.8781 134.011 16.2181C133.943 16.5241 133.841 16.8981 133.875 17.2041C133.909 17.3061 133.909 17.4421 133.909 17.5441C133.909 18.3941 133.535 18.6321 133.535 19.3801C133.535 19.5161 133.875 20.1281 133.875 20.4001C133.875 20.6381 133.807 20.8421 133.637 21.0801C133.501 21.2841 133.501 21.4541 133.535 21.7261C133.603 22.1001 133.637 22.5081 133.637 22.9161C133.637 23.6641 133.433 24.7521 133.433 25.1601ZM138.363 14.4841C138.363 13.2261 139.859 12.3761 141.049 12.3761C142.001 12.3761 142.579 12.9541 142.579 13.8041C142.579 14.1101 142.477 14.4501 142.341 14.8581C142.103 15.4701 141.219 16.4901 140.573 16.4901C140.233 16.4901 139.859 16.2861 139.145 15.8441C138.669 15.5381 138.363 15.0961 138.363 14.4841Z" fill="#240909"/>
<path d="M122.818 28.05C124.348 28.05 126.116 26.724 126.116 25.262C126.116 25.228 126.116 25.194 126.116 25.16C126.116 24.99 126.184 24.854 126.184 24.718C126.184 24.378 126.116 24.174 126.048 24.004C125.776 23.29 125.504 22.95 125.13 22.576C124.722 22.168 123.566 21.42 122.784 21.42C122.342 21.42 122.036 21.624 121.764 21.828C121.526 21.964 121.356 22.1 121.118 22.1C120.846 22.1 120.642 21.998 120.37 21.862C119.996 21.658 119.486 21.42 118.534 21.318C117.616 21.216 117.344 21.012 117.344 20.298C117.344 20.094 117.378 19.822 117.412 19.55C117.582 18.36 117.786 17.068 118.194 15.844C118.364 15.266 118.534 14.654 118.534 14.008C118.534 13.77 118.568 13.43 118.942 12.784C119.282 12.24 119.35 11.934 119.486 11.56C119.622 11.084 119.758 10.506 120.438 9.248C120.676 8.772 120.71 8.432 120.71 8.024C120.71 7.888 120.744 7.65 120.778 7.412C120.846 6.902 120.914 6.222 120.914 5.678C120.914 5.406 120.88 5.134 120.846 4.964C120.608 4.046 120.302 3.332 119.792 3.162C119.452 3.06 119.316 2.992 119.18 2.89C119.112 2.856 119.078 2.822 119.01 2.788C118.772 2.72 118.568 2.686 118.466 2.686C118.262 2.686 118.126 2.754 117.99 2.788C117.82 2.856 117.65 2.89 117.412 2.89C116.664 2.89 116.052 2.822 115.27 3.604C115.134 3.74 114.998 3.876 114.862 4.012C114.216 4.658 114.114 4.726 113.57 4.93C113.604 5.134 113.706 5.78 113.706 5.984C113.706 6.188 113.74 6.392 113.74 6.596C113.74 7.004 113.672 8.058 113.502 9.112C113.366 9.996 113.4 10.914 113.4 11.39C113.4 11.73 113.332 12.002 113.298 12.274C113.264 12.682 113.094 13.09 113.094 13.498C113.094 14.28 113.128 14.586 113.23 15.436C113.264 15.878 113.298 16.286 113.298 16.728C113.298 17.136 113.264 17.51 113.264 17.918C113.264 18.292 113.23 18.666 113.23 19.04C113.23 19.142 113.264 19.244 113.264 19.346C113.264 19.448 113.264 19.55 113.264 19.652C113.264 19.788 113.23 19.924 113.196 20.06C113.094 20.4 113.06 20.74 113.06 21.046C113.06 21.386 113.094 21.726 113.162 22.066C113.196 22.372 113.23 22.678 113.23 22.984C113.23 23.188 113.23 23.358 113.162 23.596C113.128 23.8 113.094 24.038 113.094 24.242C113.094 24.616 113.162 25.024 113.23 25.364C113.264 25.636 113.298 25.874 113.298 26.044C113.298 26.622 113.468 26.792 113.978 26.792C114.964 26.792 115.542 26.928 116.086 27.064C116.562 27.166 116.97 27.268 117.548 27.234C118.398 27.166 118.84 27.37 119.282 27.574C119.622 27.71 119.962 27.88 120.404 27.88C120.54 27.88 120.676 27.88 120.846 27.846C120.982 27.812 121.118 27.812 121.254 27.812C121.526 27.812 121.73 27.88 121.968 27.914C122.24 27.982 122.478 28.05 122.818 28.05ZM120.064 19.108C121.016 19.516 121.05 19.142 121.798 19.142C122.036 19.142 122.206 19.176 122.444 19.176C122.784 19.176 122.92 19.074 123.158 19.006C123.362 18.938 123.532 18.87 123.804 18.87C124.824 18.87 125.708 19.55 126.456 20.026C127.408 20.638 129.04 21.794 129.04 23.936C129.04 24.65 128.938 25.058 128.496 26.112C128.36 26.418 128.394 26.656 128.394 26.928C128.394 26.996 128.394 27.03 128.394 27.098C128.394 27.234 128.394 27.37 128.36 27.506C127.986 29.682 123.906 30.804 122.512 30.804C122.24 30.804 122.002 30.77 121.73 30.702C120.778 30.498 119.928 30.362 119.35 30.362C119.146 30.362 118.942 30.362 118.84 30.328C118.432 30.26 118.228 30.192 118.058 30.158C117.65 30.056 117.446 29.988 116.154 29.988C115.576 29.988 115.202 29.92 114.658 29.716C114.114 29.512 113.808 29.478 113.502 29.478C113.366 29.478 113.264 29.478 113.128 29.444C112.89 29.41 112.652 29.342 112.414 29.308C112.142 29.24 111.87 29.206 111.632 29.172C111.36 29.104 111.156 29.036 110.918 28.866C110.612 28.662 110.34 28.356 110.34 27.88C110.34 27.608 110.34 27.336 110.34 27.098C110.34 26.86 110.34 26.724 110.34 26.622C110.34 26.486 110.374 26.384 110.374 26.112C110.374 25.704 110.306 25.5 110.238 25.364C110.204 25.262 110.17 25.194 110.17 25.092C110.17 24.99 110.204 24.888 110.272 24.684C110.34 24.514 110.374 24.412 110.374 24.276C110.374 24.174 110.34 24.072 110.306 23.97C110.272 23.902 110.238 23.8 110.238 23.664C110.238 23.528 110.238 23.392 110.238 23.256C110.238 23.12 110.272 22.984 110.272 22.848C110.272 22.678 110.272 22.508 110.272 22.338C110.272 22.168 110.272 21.998 110.238 21.794C110.204 21.692 110.204 21.522 110.204 21.386C110.204 21.182 110.238 20.944 110.238 20.706C110.238 20.332 110.306 19.89 110.306 19.346C110.306 19.108 110.34 18.972 110.408 18.802C110.442 18.632 110.51 18.428 110.51 18.19C110.51 18.02 110.476 17.748 110.374 17.408C110.34 17.272 110.306 17.136 110.306 17C110.306 16.116 110.374 15.572 110.34 14.484C110.34 14.212 110.51 13.94 110.442 13.668C110.306 13.226 110.272 12.954 110.272 12.24C110.272 11.9 110.408 11.866 110.374 11.492C110.306 10.914 110.476 10.302 110.476 9.724C110.476 9.622 110.51 9.486 110.51 9.384C110.51 9.282 110.544 9.18 110.578 9.078C110.68 8.534 110.748 7.99 110.748 7.446C110.748 7.31 110.748 7.174 110.748 7.038C110.748 6.46 110.782 5.882 110.612 5.372C110.544 5.134 110.51 4.896 110.51 4.658C110.51 4.25 110.578 3.91 110.68 3.57C110.782 3.196 110.952 2.55 111.666 2.55C111.904 2.55 112.448 2.686 112.686 2.754C112.72 2.686 112.822 2.516 112.992 2.21C113.434 1.428 114.08 0.816 114.998 0.476C115.508 0.306 116.086 0 116.63 0C116.766 0 116.868 0.0339992 117.004 0.0680008C117.276 0.136 117.48 0.169999 117.616 0.169999C117.82 0.169999 117.922 0.136 118.058 0.102C118.16 0.0680007 118.262 0.0339994 118.398 0.0339994C118.874 0.0339994 119.112 0.136 119.52 0.339999C119.792 0.475999 120.132 0.612 120.676 0.782C121.186 0.918 121.424 1.122 121.696 1.326C121.866 1.462 122.07 1.632 122.342 1.768C122.852 2.04 123.056 2.414 123.192 2.788C123.396 3.332 123.634 3.876 123.634 4.42C123.634 4.692 123.702 4.896 123.702 5.1C123.702 5.44 123.804 5.61 123.668 6.018C123.634 6.188 123.566 6.358 123.566 6.562C123.566 6.902 123.77 6.902 123.77 7.344C123.77 7.582 123.668 7.786 123.566 8.024C123.43 8.33 123.294 8.704 123.328 9.146C123.396 9.69 123.158 10.098 122.92 10.54C122.716 10.914 122.512 11.288 122.41 11.73C122.138 13.056 121.934 13.634 121.696 13.974C121.152 14.79 121.118 15.266 121.118 15.742C121.118 16.15 121.084 16.558 120.71 17.34C120.268 18.292 120.132 18.598 120.064 19.108Z" fill="#240909"/>
<path d="M88.2365 30.7702C87.0465 30.7702 86.1285 30.1922 85.4485 29.4782C84.7345 28.7642 84.3945 28.4922 84.3945 27.5062C84.3945 26.5542 84.8365 26.2822 84.7345 25.6702C84.7005 25.4662 84.6665 25.2282 84.6665 24.9902C84.6665 24.3442 84.8025 23.5962 85.0405 23.0862C85.4825 22.0662 85.5505 19.5162 86.1965 17.6462C86.4685 16.8302 86.4345 16.0482 86.7745 15.1982C86.9105 14.8582 87.2845 14.4502 87.3525 14.0082C87.4205 13.6682 87.4205 13.2602 87.5225 12.9202C87.7265 12.2402 87.7265 11.9002 87.7265 11.3562C87.7265 10.8122 88.2365 10.6082 88.3725 9.48623C88.4065 9.07823 88.5765 8.70423 88.6785 8.26223C88.8825 7.44623 89.2905 6.66423 89.8005 5.88223C90.1065 5.37223 90.4805 5.06623 90.8205 4.59023C91.0585 4.21623 91.2965 3.70623 91.5345 3.26423C92.2825 1.97223 92.5205 1.70023 94.9685 0.986228C95.2745 0.884227 95.5805 0.782227 95.8865 0.782227C97.1445 0.782227 97.3485 1.25823 97.9265 1.36023C98.2325 1.42823 98.3685 1.36023 98.8105 1.53023C99.2865 1.70023 99.8985 2.24423 100.409 2.95823C100.919 3.26423 101.327 3.33223 101.803 3.60423C104.149 4.89623 104.387 5.23623 105.033 6.59623C105.169 6.90223 105.271 7.14023 105.407 7.41223C105.747 8.12623 106.053 8.80623 106.427 9.41823C106.665 9.82623 106.801 10.2342 106.801 10.6422C106.801 11.0842 106.801 11.3562 106.971 11.4922C107.345 11.8322 107.379 12.1722 107.447 12.5462C107.549 13.2262 107.685 13.9062 107.787 14.5862C107.821 14.7222 107.821 14.8582 107.821 14.9602C107.821 15.3342 107.685 15.5042 107.685 15.8442C107.685 15.9462 107.719 16.0822 107.753 16.2862C107.787 16.4562 107.821 16.6262 107.821 16.7962C107.821 17.3742 107.651 17.9862 107.685 18.4962C107.685 18.8702 107.209 19.4482 107.209 19.8902C107.209 20.1622 107.413 20.2982 107.413 20.6722C107.413 20.8422 107.379 20.9782 107.311 21.1482C107.073 21.8962 106.937 22.7122 106.767 23.5282C106.733 23.7662 106.699 23.9702 106.665 24.2422C106.529 25.2962 105.849 25.9762 105.135 26.4182C104.829 26.6222 104.659 26.7582 104.489 27.1662C104.353 27.5402 103.741 27.8802 103.095 27.9822C102.823 28.0162 102.551 28.0502 102.313 28.1182C101.973 28.2202 101.667 28.2542 101.361 28.2542C99.6605 28.2542 98.0625 27.1662 97.6885 26.1122C97.4505 25.5342 97.0765 24.8882 97.0765 24.2422C97.0765 23.5962 97.4165 23.0522 97.4165 22.5082C97.4165 22.1682 97.1105 21.8282 97.1105 21.4542C97.0765 21.0122 97.0085 20.7402 96.7025 20.5362C96.4985 20.4002 96.1925 20.3662 96.0565 20.3662C95.8865 20.3662 95.7505 20.4682 95.5465 20.7062C95.2745 21.0462 95.1725 21.3862 95.1725 21.7942C95.1725 22.2702 95.0705 23.0182 95.6825 24.2422C95.7845 24.4802 95.8185 24.6502 95.8185 24.8542C95.8185 25.2282 95.6825 25.5682 95.6825 26.0782C95.6825 26.4862 95.5125 26.9282 95.2745 27.3362C94.9345 28.0502 94.2545 28.4922 93.7105 28.8662C93.4725 29.0362 93.1325 29.3422 92.1465 29.5462C90.2765 29.9542 90.2765 30.7702 88.2365 30.7702ZM88.9165 27.7782C89.9365 27.7782 90.0045 27.1662 91.5345 26.7242C92.3845 26.4862 92.5885 25.7382 92.5885 25.1602C92.5885 24.6842 92.2485 23.2562 92.0445 22.8482C91.9085 22.5422 91.8405 22.2362 91.8405 21.9642C91.8405 20.6042 92.7245 20.2982 93.1665 19.1762C93.6765 17.8842 94.8325 17.5102 95.5465 17.3742C95.7165 17.3402 95.8865 17.3062 96.0565 17.3062C96.5665 17.3062 97.2125 17.4082 98.0285 18.1562C98.9805 19.0402 99.4905 18.8022 100.103 20.5022C100.239 20.8422 100.307 21.3182 100.307 21.7262C100.307 22.3382 99.9665 22.8142 99.9665 23.5962C99.9665 24.7182 100.239 24.8202 100.851 24.9562C101.293 25.0242 101.429 25.4322 101.905 25.4322C102.211 25.4322 102.279 25.1942 102.789 24.8202C103.333 24.4122 103.911 23.8002 103.911 23.0182C103.911 22.0662 104.421 21.2162 104.353 20.1962C104.217 18.2922 104.761 18.0542 104.761 16.0482C104.761 15.3342 104.557 14.6882 104.557 13.9742C104.557 11.7642 103.979 12.2062 103.401 10.4722C102.925 9.11223 102.449 7.99023 102.381 7.61623C102.279 7.17423 102.109 6.93623 101.905 6.80023C101.667 6.66423 100.443 5.81423 100.103 5.74623C99.7965 6.05223 99.4225 6.18823 99.1505 6.18823C98.7765 6.18823 98.1645 5.81423 97.9265 5.40623C97.6885 5.03223 97.2465 4.48823 96.7705 4.11423C96.5325 3.91023 96.2265 3.84223 95.9205 3.84223C95.5125 3.84223 95.1045 3.97823 94.8325 4.21623C94.3225 4.65823 94.3905 4.82823 93.8465 5.20223C92.6225 6.05223 92.9285 6.12023 92.7585 6.66423C92.3165 7.95623 91.9425 7.44623 91.6705 9.11223C91.6365 9.41823 91.4665 9.72423 91.3985 10.0302C91.0245 12.2402 90.6165 11.9682 90.4465 12.6482C90.4465 12.6822 90.4465 12.7162 90.4465 12.7502C90.4465 12.9542 90.4805 13.1922 90.4805 13.5322C90.4805 13.6682 90.4805 13.8042 90.4465 13.9742C90.3445 14.4842 89.6645 16.2522 89.6305 17.0682C89.5965 18.0882 88.9505 18.3602 88.8825 19.6182C88.8485 20.1282 87.9645 21.3182 87.9645 22.7122C87.9645 22.8822 87.9645 23.0182 87.9985 23.1882C88.0325 23.3922 88.0325 23.5962 88.0325 23.8002C88.0325 24.8202 87.5905 25.4662 87.5905 26.3162C87.5905 26.5202 87.5905 26.7242 87.6585 26.9282C87.8625 27.6762 88.3385 27.7782 88.9165 27.7782ZM97.7905 13.3282C97.2465 13.3282 96.6685 13.1242 96.1245 12.4442C95.8525 12.1042 95.6825 11.7642 95.6825 11.4242C95.6825 11.0502 95.9205 10.7102 96.0905 10.3702C96.4305 9.62223 96.9745 9.14623 97.7905 9.14623C98.5385 9.14623 99.2185 9.75823 99.5585 10.0642C100.103 10.6082 100.341 10.8122 100.341 11.4582C100.341 12.4782 98.8445 13.3282 97.7905 13.3282Z" fill="#240909"/>
<path d="M69.472 30.1244C69.064 30.1244 68.826 29.9544 68.418 29.9544C67.704 29.9204 67.16 29.8524 66.684 29.6484C66.038 29.4104 66.038 28.9684 64.882 28.4244C63.658 27.8464 63.284 25.6364 63.42 24.6844C63.522 24.0724 63.556 23.6644 63.556 23.3244C63.556 22.3384 63.25 22.1344 63.25 20.4004C63.25 19.7544 63.42 18.8024 63.42 18.1904C63.42 17.5444 63.25 17.2384 63.25 16.6604C63.284 16.0824 63.42 15.5044 63.42 14.9264C63.42 14.3484 63.284 13.7704 63.318 13.1584C63.42 11.3904 63.93 9.65638 63.93 7.85438C63.93 5.84838 65.324 4.86238 65.698 3.12838C66.038 1.49638 67.602 0.748383 69.302 0.476382C69.88 0.408383 70.39 0.714383 71.138 0.714383C71.342 0.714383 71.58 0.680384 71.852 0.612383C72.294 0.510382 72.668 0.442383 73.042 0.442383C74.266 0.442383 75.218 0.986384 76.646 1.63238C77.326 1.25838 77.904 1.12238 78.38 1.12238C79.332 1.12238 79.978 1.63238 80.556 1.93838C81.678 2.48238 81.712 2.89038 82.936 3.67238C83.718 4.18238 83.344 4.76038 83.922 5.13438C84.534 5.54238 84.228 6.56238 84.738 7.00438C85.52 7.68438 85.588 9.01038 85.588 9.96238C85.588 10.5404 85.078 10.9484 85.078 11.5944C85.078 12.2744 84.5 12.7164 83.99 13.1244C82.494 14.2804 82.29 14.6884 81.848 15.1644C82.358 15.9464 82.596 16.6944 82.596 17.0684C82.596 17.6804 82.358 18.1564 82.222 18.8364C81.95 20.3664 81.304 19.9244 80.522 21.2504C80.25 21.7264 79.706 22.3384 78.992 22.3384C78.244 22.3384 77.87 22.7464 77.326 22.7464C76.714 22.7464 76.136 22.6104 75.592 22.4404C75.252 22.3044 74.946 22.1004 74.776 21.7944C74.368 21.1144 74.232 21.3864 73.926 21.0124C73.654 20.6724 73.382 20.5024 73.28 20.5024C73.212 20.5024 73.144 20.5364 73.144 20.6044C73.144 20.6724 73.348 20.9104 73.722 21.2844C74.028 21.5904 74.062 22.2364 74.062 22.6104C74.062 23.5284 74.47 23.8344 74.47 24.4464C74.47 24.6164 74.436 24.7864 74.368 25.0244C74.164 25.6024 73.994 26.3164 73.756 26.9624C73.586 27.5064 72.804 28.1524 71.886 28.5604C70.73 29.0704 71.206 29.6824 69.982 30.0564C69.778 30.1244 69.608 30.1244 69.472 30.1244ZM69.302 26.8264C70.39 26.8264 71.308 26.1804 71.308 24.8544C71.308 24.4464 71.478 24.3104 71.478 23.9704C71.478 23.9024 71.478 23.8004 71.444 23.6984C71.308 23.1204 71.104 23.3924 70.832 22.4744C70.662 21.8624 70.186 21.5224 69.812 21.2164C69.336 20.8084 69.098 20.3664 69.098 19.7884C69.098 18.7004 69.642 17.5784 70.73 17.5784C72.124 17.5784 72.328 17.2044 73.144 17.2044C73.892 17.2044 74.402 17.2384 75.184 18.1904C75.626 18.7344 76.442 19.7544 77.564 19.7544C77.768 19.7544 78.006 19.6524 78.278 19.4484C78.788 19.1084 79.502 18.3264 79.502 17.7824C79.502 16.7964 78.516 15.8784 77.564 15.6064C76.714 15.3684 76.306 14.8584 75.83 14.6884C75.694 14.6544 75.592 14.6204 75.456 14.6204C75.15 14.6204 74.81 14.6884 74.47 14.6884C74.3 14.6884 74.096 14.6884 73.926 14.6204C72.702 14.3144 71.682 13.7364 71.682 12.5124C71.682 11.5604 72.022 10.7784 72.94 10.3364C73.79 9.92839 73.586 9.35038 74.742 9.35038C75.184 9.35038 76.204 9.72438 76.578 10.3364C77.258 11.4244 77.632 10.6764 78.516 12.2744C78.72 12.6484 79.434 13.1584 79.74 13.0904C80.046 13.0224 79.978 12.7164 80.59 12.3764C81.202 12.0364 80.964 11.4584 82.222 10.6764C82.528 10.4724 82.63 10.0984 82.63 9.75838C82.63 8.63638 82.12 8.02438 81.814 7.78638C81.032 7.14038 81.576 6.76638 80.828 6.29038C80.488 6.08638 80.522 5.30438 79.944 5.10038C79.264 4.89638 78.992 4.38638 78.21 4.08038C77.972 4.25038 77.632 4.82838 76.748 4.82838C75.728 4.82838 75.796 4.25038 74.81 4.08038C73.314 3.84238 73.416 3.02638 72.566 3.02638C72.43 3.02638 72.328 3.02638 72.158 3.06038C71.274 3.23038 71.07 3.29838 70.73 3.29838C70.458 3.29838 70.186 3.12838 69.846 3.12838C68.86 3.12838 68.588 5.06638 67.942 5.61038C67.364 6.08638 67.262 6.52838 67.262 6.90238C67.228 7.68438 66.718 7.54838 66.82 9.48638C66.854 10.3364 66.582 11.0164 66.548 11.4924C66.514 11.8664 66.514 12.1724 66.514 12.4104C66.514 13.2604 66.65 13.3964 66.65 13.9404C66.65 14.6544 66.106 14.6204 66.242 17.7144C66.276 18.1224 66.276 18.4964 66.378 18.8704C66.446 19.1424 66.514 19.4144 66.514 19.6524C66.514 19.9924 66.514 20.4344 66.378 20.8084C66.276 21.1484 66.174 21.3184 66.174 21.7944C66.174 22.5424 66.48 22.4744 66.48 22.9844C66.48 23.1204 66.446 23.2904 66.378 23.5284C66.31 23.7324 66.31 23.9364 66.31 24.1744C66.31 25.1264 66.82 26.0104 67.67 26.1804C68.52 26.3504 68.724 26.8264 69.302 26.8264Z" fill="#240909"/>
<path d="M40.7833 29.8184C39.9333 29.8184 39.0153 29.5804 38.4033 29.1044C37.7573 28.6284 37.1113 28.0844 36.6693 27.6424C35.5813 26.6224 35.4453 25.2964 35.4453 24.3784C35.4453 23.4944 35.4793 23.1204 35.6493 22.6784C35.8193 22.2024 36.1593 21.6244 36.2953 20.2644C36.3973 19.3124 36.5673 18.1904 37.2473 17.4764C38.0973 16.5584 38.1993 15.8784 38.2673 15.2664C38.3353 14.8584 38.3693 14.5184 38.6413 14.1104C39.2873 13.0564 39.5253 12.0364 39.7633 10.9484C39.7973 10.6764 39.8653 10.4384 39.9333 10.1664C40.5793 7.6844 41.2933 6.8344 41.8713 6.1204C42.2453 5.6444 42.5513 5.2364 42.7553 4.5224C42.8573 4.0464 43.4013 3.7404 43.9453 3.4344C44.0473 3.3664 44.1493 3.3324 44.2513 3.2644C45.5093 2.4484 46.3593 2.1764 47.2773 2.1764C48.1273 2.1764 48.8413 2.1424 49.8273 2.4824L50.1673 2.3124C50.4053 2.2104 50.6093 2.1084 51.2553 2.1084C52.3773 2.1084 53.1593 2.4484 54.6553 3.1964C55.4033 3.5704 55.9133 4.0464 56.4233 4.5564C56.8653 4.9984 57.3073 5.4404 57.8853 5.7124C58.2933 5.9164 58.5653 6.3244 58.7013 6.6644C58.8713 7.0384 59.0413 7.4124 59.1773 7.7184C59.8233 9.1804 60.2993 10.1664 60.4013 11.3904C60.4353 11.6284 60.4353 11.9344 60.4353 12.3084C60.4353 13.1244 60.4353 14.1784 60.6393 15.3004C60.6733 15.5044 60.6393 15.6744 60.5713 15.9124C60.5033 16.1844 60.4013 16.4904 60.4013 17.0004C60.4013 17.3064 60.4353 17.6804 60.5373 18.1224C60.6053 18.4964 60.6393 18.7344 60.6393 18.9384C60.6393 19.1764 60.6053 19.3124 60.5713 19.5164C60.5033 19.7884 60.4353 20.0944 60.4353 20.8084C60.4353 21.2844 60.2653 21.4884 60.0953 21.7604C59.8913 22.0324 59.6873 22.3044 59.6533 22.9164C59.6193 23.7324 59.6533 24.2424 59.1433 24.9904C59.0753 25.1264 58.9733 25.2284 58.8713 25.2964C58.6673 25.4664 58.4633 25.6364 58.2933 26.2484C57.9873 27.1664 56.7973 28.1524 55.7093 28.1864C55.3353 28.2204 54.9613 28.3904 54.6213 28.5604C54.2813 28.6964 53.9413 28.8664 53.6353 28.8664C52.5133 28.8664 52.0033 28.5264 51.2893 28.0164C51.0173 27.8464 50.7113 27.6424 50.3373 27.4384C49.4193 26.8944 49.4193 25.7384 49.4193 24.8204C49.4193 24.2084 49.5213 23.5624 49.7253 22.9504C49.8273 22.6444 49.8613 22.3724 49.8613 22.0664C49.8613 21.7944 49.7933 21.4884 49.7253 21.2164C49.6573 20.9444 49.5893 20.6724 49.5893 20.3664C49.5893 20.0944 49.5213 19.8904 49.2493 19.7204C49.0113 19.5844 48.9093 19.4484 48.8413 19.3464C48.7053 19.1424 48.5353 19.0744 48.3993 19.0744C48.0593 19.0744 47.6853 19.8564 47.6853 20.0944C47.6853 20.3324 47.7873 20.5364 47.9233 20.7064C48.0933 20.9444 48.1273 21.0124 48.1273 21.2504C48.1273 21.3524 48.0933 21.4884 48.0253 21.6584C47.9573 21.8624 47.8553 22.1344 47.8553 22.3724C47.8553 22.4404 47.8893 22.5764 47.9233 22.7124C47.9913 22.9504 48.0933 23.2564 48.0933 23.5624C48.0933 23.8344 48.0593 23.9704 47.9913 24.1404C47.9233 24.3784 47.8553 24.6504 47.8553 25.2284C47.8553 25.6364 47.6173 25.8744 47.3453 26.1804C47.0733 26.4184 46.7673 26.7244 46.6653 27.2004C46.4273 28.1184 45.5773 28.5264 45.1013 28.6284C44.7613 28.6964 44.4893 28.7644 44.2173 28.7984C43.7753 28.8664 43.4013 28.9344 43.1973 29.0704C42.3473 29.7164 41.3273 29.8184 40.7833 29.8184ZM40.9533 26.8944C41.2253 26.8944 41.3953 26.7924 41.5653 26.6564C41.8373 26.4864 42.1433 26.3164 42.8233 26.4184C43.4013 26.5204 43.8093 26.1464 44.1153 25.5004C44.4213 24.8544 44.9313 24.8204 44.8633 24.3104C44.6933 23.1204 45.0333 22.4744 45.0333 21.7944C45.0333 21.5904 44.9653 21.4544 44.8633 21.2504C44.6933 20.8424 44.6253 20.4684 44.6253 20.0944C44.6253 19.5164 44.6933 18.7684 45.1693 18.4624C45.7813 18.0204 46.0533 17.6464 46.2573 17.3404C46.6653 16.7624 46.9033 16.3884 48.4673 16.2524C48.9093 16.2184 49.3853 16.3544 49.7593 16.5584C50.1673 16.7964 50.4733 17.4764 51.2553 17.9184C52.0713 18.3944 52.7173 18.9724 52.7173 20.0604C52.7173 20.4344 52.6153 20.8764 52.6153 21.2504C52.6153 21.5564 52.7173 21.8964 52.7853 22.1344C52.8533 22.3384 52.8873 22.5084 52.8873 22.6444C52.8873 22.9164 52.7173 23.2564 52.5473 23.5624C52.4113 23.8344 52.3433 24.1064 52.3433 24.3784C52.3433 24.6844 52.4113 25.0244 52.5133 25.3304C52.6833 25.8744 53.2273 25.9764 53.6693 25.9764C54.0433 25.9764 54.4173 25.8744 54.8253 25.6024C55.7773 24.9224 56.7973 24.5144 56.7293 23.1544C56.6953 22.5424 56.8993 22.2364 57.0693 21.9304C57.2053 21.7264 57.3413 21.5224 57.3413 21.2504C57.3413 21.0464 57.2053 20.8424 57.2053 20.5024C57.2053 20.0944 57.5113 19.7204 57.5113 19.3124C57.5113 18.9044 57.4093 18.4964 57.4433 18.1224C57.4433 17.8164 57.5453 17.4764 57.5453 17.2044C57.5453 16.8644 57.5113 16.5584 57.4773 16.2524C57.4773 15.9464 57.4433 15.7084 57.4433 15.4364C57.4433 15.2664 57.4433 15.0624 57.4773 14.8924C57.5453 14.5864 57.5793 14.2804 57.5793 14.0084C57.5793 13.6004 57.5113 13.2604 57.4773 12.8864C57.4433 12.6144 57.3753 12.3424 57.3753 12.0364C57.3753 11.5604 57.2053 11.0844 57.0693 10.6424C56.8993 10.1664 56.7633 9.7244 56.7633 9.2144C56.7633 8.5344 56.4573 8.2624 56.1513 7.9904C56.0153 7.8884 55.9473 7.7524 55.8113 7.6164C53.8733 5.9844 54.3153 5.7804 52.9213 5.3384C52.3093 5.1344 52.0033 4.9984 51.8673 5.0324C51.7993 5.2364 51.7653 5.6784 51.2213 5.8824C50.1673 6.2564 50.0653 5.4404 49.4533 5.3384C48.9093 5.2364 48.5013 4.8284 47.9573 4.8284C47.6513 4.8284 47.3453 4.8624 46.9713 5.0664C46.2573 5.4404 45.4753 5.7804 45.2373 6.5964C45.0673 7.2084 44.7953 7.4124 44.4893 7.6504C44.0813 7.9564 43.6393 8.2624 43.4353 9.7584C43.3673 10.2344 43.1973 10.5744 42.9933 10.9144C42.6873 11.4244 42.4493 12.0024 42.2113 13.2604C42.0413 14.1444 41.3273 14.8584 41.2933 15.3004C41.1913 16.2524 40.8513 16.9324 40.3753 17.5444C40.1033 17.9184 40.1033 18.2584 40.1033 18.4964C40.1033 18.5984 40.1033 18.6324 40.1033 18.7004C40.0693 18.9724 39.9673 19.1764 39.8313 19.4144C39.6613 19.6524 39.4913 19.9584 39.3553 20.5024C39.1853 21.2164 39.3553 21.4544 38.9473 22.1344C38.5733 22.7804 38.5733 24.2424 38.5733 24.7524C38.5733 24.9564 38.7093 25.2624 38.9813 25.7384C39.2193 26.1124 39.4913 26.2484 39.8653 26.4524C40.0013 26.5204 40.1033 26.5884 40.2053 26.6224C40.4433 26.7924 40.6473 26.8944 40.9533 26.8944ZM50.4053 12.2404C50.2353 12.2404 50.0653 12.2404 49.8953 12.1724C49.0793 11.8664 48.3653 11.0844 48.3653 10.1324C48.3653 9.0784 49.3513 8.0244 50.4053 8.0244C51.3913 8.0244 52.5813 9.8604 52.5813 10.4384C52.5813 11.5604 51.0853 12.2404 50.4053 12.2404Z" fill="#240909"/>
<path d="M1.598 31.0421C1.394 31.0421 1.19 31.0081 1.02 30.9401C0.544 30.7701 0 30.2601 0 29.7841C0 29.4781 0.136 29.3081 0.238 29.1721C0.306 29.0701 0.374 29.0021 0.374 28.8321C0.374 28.4581 0.51 28.1181 0.646 27.8121C0.782 27.5401 0.952 27.4041 1.122 27.2681C1.428 26.9621 1.632 26.4521 1.802 25.8401C1.836 25.7381 1.87 25.6701 1.904 25.5681C1.938 25.3641 2.006 25.1601 2.108 24.9561C2.142 24.8881 2.142 24.7521 2.142 24.6161C2.142 24.4801 2.142 24.3781 2.142 24.2761C2.142 24.1401 2.142 24.0041 2.244 23.8681C2.346 23.7321 2.38 23.5961 2.38 23.4601C2.38 23.3581 2.346 23.2221 2.312 23.0521C2.278 22.8481 2.21 22.5761 2.21 22.2021C2.21 21.9981 2.21 21.7941 2.244 21.5901C2.244 21.4201 2.244 21.2161 2.244 21.0461C2.244 20.9101 2.244 20.8081 2.278 20.6721C2.278 20.5701 2.278 20.4341 2.278 20.3321C2.278 20.1961 2.278 20.0941 2.244 19.9921C2.176 19.6861 2.142 19.4141 2.142 19.2441C2.142 18.9721 2.21 18.8361 2.244 18.7341C2.312 18.5981 2.346 18.5301 2.278 18.2921C2.244 18.1561 2.244 18.0541 2.244 17.9521C2.244 17.7481 2.278 17.6121 2.346 17.4761C2.346 17.4081 2.38 17.3401 2.38 17.2721C2.38 17.1701 2.38 17.0681 2.38 16.9321C2.346 16.7961 2.346 16.6261 2.346 16.4901C2.346 16.3201 2.346 16.1841 2.38 16.0141C2.38 15.8781 2.38 15.7421 2.38 15.6061C2.38 15.0281 2.346 14.4161 2.312 13.8041C2.244 13.1921 2.21 12.5461 2.21 11.9341C2.21 10.8801 2.346 9.79214 2.584 8.73814C2.754 8.02414 3.06 7.34414 3.366 6.69814C3.468 6.49414 3.536 6.25614 3.638 6.05214C3.774 5.67814 4.08 5.33814 4.318 5.10014C4.386 5.03214 4.386 4.96414 4.42 4.86214C4.488 4.69214 4.556 4.52214 4.794 4.45414C5.542 4.31814 5.95 4.08014 6.154 3.91014C6.358 3.77414 6.528 3.74014 6.698 3.70614C6.8 3.70614 6.868 3.67214 6.902 3.63814C7.412 3.29814 7.786 3.26414 8.262 3.26414C8.466 3.26414 8.67 3.29814 8.84 3.33214C9.316 3.43414 9.792 3.50214 10.302 3.57014C10.71 3.60414 11.016 3.80814 11.322 3.94414C11.56 4.08014 11.764 4.18214 12.002 4.25014C12.614 4.42014 13.192 4.59014 13.634 4.93014C14.178 5.30414 14.654 5.78014 14.892 6.15414C15.028 6.39214 15.198 6.56214 15.368 6.76614C15.47 6.83414 15.538 6.93614 15.606 7.00414C15.878 7.31014 15.98 7.82014 15.98 8.09214C15.98 8.53414 15.98 8.67014 15.98 8.73814C15.98 9.01014 16.116 9.28214 16.252 9.55414C16.422 9.86014 16.422 10.1661 16.456 10.4041C16.456 10.5061 16.456 10.6081 16.49 10.6761C16.524 10.7781 16.558 10.8121 16.626 10.9141C16.694 11.0161 16.83 11.1861 16.898 11.4581C16.932 11.6621 16.966 11.8661 16.966 12.0701C16.966 12.2061 16.966 12.3421 16.966 12.4781C16.932 12.6141 16.932 12.7501 16.932 12.9201C16.932 13.1241 16.966 13.3281 17.034 13.5661C17.102 13.7361 17.102 14.0081 17.102 14.2461C17.102 14.3141 17.102 14.3821 17.102 14.4501C17.102 14.8581 17.136 15.0621 17.34 15.0621C17.442 15.0621 17.578 14.9601 17.748 14.7561C17.782 14.7221 17.816 14.6541 17.884 14.6201C18.326 14.1441 18.496 13.5321 18.394 12.7161C18.326 12.1721 18.53 11.6621 18.7 11.2201C18.836 10.8801 18.938 10.6081 18.938 10.3361C18.938 9.92814 18.938 9.75814 19.04 9.28214C19.074 9.01014 19.516 8.12614 19.652 7.85414C19.72 7.75214 19.72 7.65014 19.754 7.54814C19.788 7.37814 19.822 7.20814 19.992 7.03814C20.026 6.97014 20.094 6.90214 20.128 6.83414C20.162 6.76614 20.196 6.69814 20.264 6.63014C20.468 6.32414 20.57 6.15414 20.706 5.78014C20.876 5.37214 21.25 5.03214 21.556 4.69214C21.624 4.62414 21.692 4.59014 21.76 4.52214C21.964 4.31814 22.1 4.14814 22.304 3.87614C22.542 3.50214 23.018 3.06014 23.766 2.75414C24.582 2.38014 25.466 2.24414 26.248 2.24414C26.452 2.24414 26.656 2.24414 26.826 2.24414C27.574 2.24414 28.322 2.51614 28.696 2.68614C28.9 2.78814 29.206 2.85614 29.546 2.95814C29.886 3.02614 30.26 3.12814 30.464 3.23014C31.178 3.63814 31.926 4.18214 32.606 4.65814C33.728 5.44014 34.034 6.63014 34.34 7.61614C34.612 8.43214 34.544 9.24814 34.51 10.0301C34.476 10.3361 34.476 10.6421 34.476 10.9141C34.476 11.3561 34.51 11.8321 34.612 12.2401C34.68 12.5461 34.646 12.8521 34.646 13.1241C34.646 13.2261 34.646 13.3281 34.646 13.3961C34.646 13.5661 34.646 13.7021 34.646 13.8381C34.646 13.9741 34.646 14.1441 34.646 14.2801C34.68 14.4501 34.68 14.6201 34.68 14.7901C34.68 15.1301 34.612 15.4361 34.578 15.7761C34.51 16.1161 34.442 16.4221 34.442 16.7621C34.442 16.8981 34.442 17.0001 34.442 17.1361C34.442 17.6121 34.272 18.0541 34.102 18.4621C34 18.7341 33.898 19.0061 33.83 19.3121C33.796 19.5161 33.762 19.8221 33.762 20.1281C33.762 20.2301 33.762 20.2981 33.728 20.3661C33.728 20.4681 33.728 20.5361 33.728 20.6041C33.728 20.8081 33.694 21.0121 33.66 21.2161C33.626 21.6581 33.592 22.0661 33.524 22.5421C33.456 22.9161 33.32 23.3241 33.184 23.7321C33.116 23.9021 33.082 24.1061 33.014 24.3101C32.946 24.4461 32.878 24.5821 32.844 24.7521C32.708 25.0241 32.572 25.2961 32.572 25.5681C32.572 25.9081 32.368 26.0441 32.198 26.1461C32.062 26.2481 31.926 26.3161 31.858 26.5881C31.688 27.0641 31.416 27.6421 30.906 27.9141C30.532 28.0841 30.158 28.3221 29.75 28.5261C29.444 28.7301 29.138 28.9001 28.764 29.1041C28.526 29.2061 28.186 29.2741 27.914 29.2741C27.54 29.2741 27.166 29.1721 26.86 29.0021C26.792 28.9681 26.724 28.9341 26.656 28.9341C26.384 28.8661 26.01 28.7641 25.636 28.1181C25.602 28.0501 25.466 27.9821 25.296 27.9141C25.16 27.8461 24.99 27.7781 24.82 27.6421C24.344 27.2681 24.004 26.7921 23.868 26.2481C23.8 26.0441 23.664 25.4321 23.63 25.0241C23.358 25.2961 23.086 25.6361 22.78 26.0101C22.508 26.3501 22.066 26.6221 21.658 26.7581C21.386 26.8261 21.046 26.9621 20.706 27.0981C19.856 27.4041 18.87 27.7781 18.258 27.7781C18.02 27.7781 17.782 27.8121 17.51 27.8121C16.83 27.8461 16.116 27.9141 15.504 27.6421C15.266 27.5401 15.028 27.5401 14.79 27.5401C14.552 27.5741 14.28 27.5741 14.042 27.4381C13.498 27.1321 12.988 27.1661 12.41 27.1661C12.07 27.1661 11.696 27.0641 11.356 26.8601C11.322 27.0301 11.288 27.1661 11.22 27.4041C10.982 28.1861 10.608 28.4581 10.03 28.7301C9.962 28.7641 9.86 28.7981 9.758 28.8661C9.418 29.0361 9.01 29.2061 8.772 29.4781C7.99 30.3961 7.072 30.8041 5.746 30.8041C5.508 30.8041 5.27 30.7361 5.032 30.6681C4.896 30.6681 4.76 30.6341 4.624 30.6001C4.454 30.5661 4.318 30.5661 4.148 30.5661C4.114 30.5661 4.046 30.5661 3.978 30.5661C3.842 30.5661 3.706 30.5321 3.536 30.4981C3.4 30.4641 3.23 30.4301 3.06 30.4301C3.026 30.4301 2.958 30.4981 2.822 30.5661C2.55 30.7701 2.142 31.0421 1.598 31.0421ZM6.154 28.1181C6.426 28.1181 6.664 27.8801 6.868 27.6761C6.97 27.5401 7.106 27.4041 7.276 27.2681C7.956 26.8601 8.602 26.6221 8.874 25.6361C8.976 25.3641 8.976 25.2621 8.874 25.0921C8.5 24.4121 8.194 23.7661 8.16 23.0181C8.16 22.8821 8.126 22.7461 8.126 22.6101C8.092 22.4741 8.092 22.3381 8.058 22.1681C8.058 22.0321 8.024 21.8621 7.99 21.6921C7.956 21.4201 7.922 21.1481 7.922 20.8761C7.922 20.7061 7.956 20.5021 8.024 20.2981C8.058 20.0941 8.092 19.8901 8.092 19.7541C8.092 19.7201 8.058 19.6521 8.058 19.5841C7.99 19.3801 7.888 19.0741 7.956 18.7001C8.024 18.4281 7.956 18.2921 7.922 18.1221C7.854 18.0201 7.82 17.8501 7.82 17.6461C7.82 17.3741 7.888 17.0341 8.058 16.7281C8.296 16.3881 8.534 16.3201 8.738 16.2861C8.772 16.2861 8.806 16.2521 8.84 16.2521C8.874 16.2521 8.908 16.2521 8.942 16.2521C9.078 16.2181 9.18 16.1841 9.316 16.1841C9.69 16.1841 9.962 16.3541 10.234 16.7621C10.336 16.9661 10.438 17.1021 10.574 17.2721C10.982 17.7821 11.254 18.4281 11.458 19.1421C11.492 19.3121 11.56 19.4481 11.594 19.6181C11.696 19.9241 11.798 20.1961 11.832 20.4681C11.832 20.5361 11.866 20.6041 11.866 20.6721C11.866 20.7061 11.866 20.7741 11.9 20.8081C11.968 21.0461 12.002 21.3521 12.002 21.6241C12.002 21.8621 11.934 22.1681 11.832 22.4401C11.764 22.6101 11.73 22.7461 11.764 22.8821C11.968 24.3101 13.09 24.7181 14.11 24.7181C14.484 24.7181 14.858 24.8201 15.232 24.9221C15.674 25.0241 16.184 25.1601 16.83 25.1601C17.51 25.1601 18.292 24.9561 18.938 24.7861C19.142 24.7181 19.312 24.6841 19.448 24.6501C20.23 24.4461 20.638 23.9701 21.148 23.3921C21.284 23.2561 21.522 22.9841 21.692 22.8141C21.76 22.7461 21.828 22.6781 21.896 22.5761C21.964 22.4741 22.066 22.3381 22.202 22.2361C22.542 21.9641 22.712 21.6581 22.712 21.2501C22.712 20.8081 22.338 19.1761 22.338 18.3941C22.338 18.0881 22.338 17.8161 22.372 17.5101C22.406 17.2041 22.44 16.8981 22.44 16.6261C22.44 16.4561 22.406 16.2861 22.406 16.1501C22.372 15.9801 22.372 15.8441 22.372 15.6741C22.372 15.1981 22.474 14.6201 22.61 14.1781C22.882 13.3621 23.63 12.9541 24.412 12.9541C24.616 12.9541 24.82 12.9881 24.99 13.0221C25.976 13.2941 26.554 13.8721 26.724 14.3821C26.792 14.6201 26.962 14.7561 27.03 14.8241C27.2 14.9601 27.37 15.1301 27.472 15.5041C27.506 15.6401 27.54 15.7761 27.574 15.8781C27.744 16.3881 27.914 16.9321 27.846 17.4761C27.812 17.6461 27.846 17.7821 27.846 17.9521C27.846 18.0201 27.846 18.1221 27.846 18.2241C27.846 18.3601 27.846 18.4961 27.846 18.6321C27.846 18.7681 27.846 18.9041 27.846 19.0401C27.846 19.1761 27.846 19.3121 27.812 19.5161C27.744 19.9241 27.574 20.4001 27.438 20.8081C27.404 20.8761 27.37 20.9781 27.37 21.0801C27.268 21.3521 27.2 21.6921 27.064 21.9641C27.03 22.0321 26.996 22.1001 26.962 22.1681C26.826 22.4401 26.69 22.7121 26.452 22.9841C26.248 23.2561 26.146 23.5281 26.146 23.8341C26.146 24.0721 26.18 24.3101 26.282 24.5821C26.316 24.7181 26.35 24.8541 26.384 24.9901C26.554 25.7041 26.758 26.5201 28.084 26.5201C28.73 26.5201 28.9 26.2821 29.172 25.9421C29.274 25.7721 29.41 25.6021 29.614 25.4321C29.784 25.2621 29.886 25.0241 29.92 24.8201C29.988 24.5821 30.022 24.3441 30.294 24.0721C30.668 23.6981 30.804 22.7121 30.804 21.8281C30.804 21.3181 30.838 20.8081 30.94 20.2641C30.974 19.9921 31.042 19.7201 31.11 19.4481C31.246 18.7001 31.382 17.9861 31.552 17.1701C31.552 17.1021 31.586 17.0001 31.62 16.8981C31.654 16.5921 31.722 16.2521 31.722 15.9461C31.722 15.7761 31.722 15.6061 31.688 15.4361C31.688 15.3001 31.688 15.1641 31.688 15.0281C31.688 14.7561 31.688 14.5181 31.722 14.2461C31.756 13.9741 31.79 13.7361 31.79 13.4641C31.79 13.2601 31.79 13.0561 31.79 12.8521C31.756 12.6141 31.756 12.4101 31.756 12.2061C31.756 11.3901 31.722 10.5741 31.586 9.82614C31.552 9.58814 31.518 9.38414 31.484 9.18014C31.45 8.80614 31.416 8.46614 31.314 8.16014C31.144 7.54814 30.872 7.24214 30.43 6.93614C30.26 6.80014 30.056 6.56214 29.886 6.32414C29.75 6.12014 29.614 5.95014 29.512 5.91614C29.002 5.54214 28.832 5.54214 28.492 5.54214C28.22 5.50814 27.812 5.50814 26.962 5.23614C26.86 5.20214 26.758 5.16814 26.656 5.13414C26.418 5.06614 26.248 4.99814 26.044 4.99814C25.602 4.99814 25.058 5.44014 24.684 5.88214C24.514 6.12014 24.344 6.25614 24.242 6.35814C24.208 6.39214 24.174 6.42614 24.14 6.46014C24.072 6.52814 24.038 6.56214 23.97 6.63014C23.562 7.03814 23.256 7.34414 22.95 7.78614C22.882 7.88814 22.814 8.05814 22.746 8.19414C22.644 8.43214 22.508 8.70414 22.304 8.87414C22.032 9.11214 21.93 9.55414 21.862 9.92814C21.828 10.0301 21.828 10.1321 21.794 10.2341C21.726 10.3701 21.692 10.5061 21.658 10.6421C21.624 10.7781 21.556 10.9141 21.522 11.0501C21.352 11.4581 21.386 11.9681 21.386 12.4781C21.386 12.9201 21.386 13.3961 21.148 13.8381C21.012 14.0421 20.978 14.2121 20.978 14.4501C20.944 14.7561 20.91 15.1301 20.57 15.7761C20.502 15.8781 20.468 15.9801 20.434 16.0481C20.4 16.1161 20.366 16.2181 20.332 16.2861C20.094 16.7621 19.652 17.1361 19.142 17.4421C18.53 17.7481 17.782 18.1561 17.034 18.1561C16.388 18.1561 15.776 17.6121 15.436 17.1701C15.096 16.7281 14.688 16.1501 14.552 15.6741C14.314 14.8581 14.246 14.0081 14.178 13.2261C14.11 12.4781 13.974 11.8321 13.77 11.2201C13.498 10.4041 13.226 9.62214 13.09 8.80614C12.92 7.92214 12.512 7.54814 12.036 7.37814C11.866 7.31014 11.73 7.20814 11.594 7.10614C11.458 6.97014 11.322 6.83414 11.05 6.83414C10.846 6.83414 10.54 6.73214 10.166 6.59614C9.69 6.42614 9.112 6.22214 8.636 6.22214C8.534 6.22214 8.466 6.22214 8.398 6.22214C7.956 6.22214 7.65 6.18814 7.208 6.46014C6.8 6.69814 6.528 6.80014 6.324 6.83414C6.086 6.90214 5.882 7.20814 5.644 7.78614C5.202 8.80614 4.76 9.86014 4.76 10.9481C4.76 11.0161 4.76 11.0841 4.76 11.1521C4.76 11.3221 4.76 11.5941 4.556 11.8321C4.488 11.9681 4.42 12.1381 4.42 12.2741C4.42 12.3761 4.454 12.4781 4.454 12.6141C4.488 12.6821 4.522 12.7841 4.522 12.8521C4.658 13.5321 4.726 14.0761 4.726 14.5181C4.726 14.8921 4.76 15.0281 4.828 15.1981C4.862 15.3341 4.93 15.5041 4.93 15.9121C4.93 16.0141 4.896 16.1501 4.896 16.3201C4.828 16.6261 4.76 17.0681 4.76 17.6801C4.76 17.7141 4.76 17.7481 4.76 17.8161C4.726 17.9861 4.692 18.2581 4.76 18.7341C4.76 18.8361 4.76 18.9041 4.76 19.0061C4.76 19.2441 4.726 19.5161 4.692 19.7541C4.624 20.1621 4.556 20.5701 4.556 20.9441C4.556 21.4541 4.59 21.9641 4.658 22.4741C4.726 22.9161 4.76 23.3921 4.76 23.8681C4.76 24.1741 4.76 24.5141 4.692 24.8881C4.658 24.9901 4.658 25.1261 4.624 25.2621C4.624 25.3301 4.59 25.3981 4.59 25.5001C4.488 26.0101 4.046 27.0981 3.774 27.6761C3.808 27.6761 3.808 27.6761 3.842 27.6761C4.148 27.7101 4.59 27.7441 5.066 27.9481C5.372 28.1181 5.542 28.0841 5.678 28.0841C5.712 28.0841 5.78 28.0841 5.814 28.0841C5.882 28.0841 5.916 28.0841 5.984 28.0841C5.984 28.0841 6.086 28.1181 6.154 28.1181ZM25.092 19.8561C25.568 18.7341 25.5 17.1361 25.466 16.8301C25.398 16.2861 25.092 16.2521 25.024 16.2521C24.922 16.2521 24.82 16.3541 24.82 16.5921C24.82 17.2381 24.956 17.5101 24.99 17.8161C25.024 18.0541 24.854 18.9381 25.092 19.8561Z" fill="#240909"/>
</svg>
