<svg width="27" height="39" viewBox="0 0 27 39" fill="none" xmlns="http://www.w3.org/2000/svg">
<path d="M10.03 38.522C9.52 38.522 9.01 38.182 8.806 37.808C8.636 37.434 8.70401 37.094 8.70401 36.924C8.70401 36.346 8.94201 35.938 9.04401 35.53C9.11201 35.292 9.28199 35.088 9.24799 34.782C9.21399 34.476 9.384 34.34 9.452 34C9.52 33.762 9.55401 33.49 9.65601 33.184C9.69001 33.014 9.68999 32.708 9.82599 32.368C9.99599 31.994 10.54 30.736 11.118 30.736C11.458 30.736 11.798 30.77 12.172 30.77C12.75 30.77 13.124 31.042 13.498 31.042C14.042 31.042 14.654 30.872 15.3 30.736C15.776 30.634 16.32 30.464 16.898 30.294C17.102 30.226 17.306 30.158 17.544 30.056C17.68 29.988 17.952 29.648 18.156 29.546C18.394 29.41 18.666 29.274 18.904 29.172C19.21 29.07 19.312 28.9 19.55 28.9C19.788 28.9 19.992 28.594 20.366 28.322C20.774 27.982 21.25 27.642 21.59 27.302C21.896 26.996 22.338 26.588 22.678 26.248C22.95 25.976 23.12 25.874 23.29 25.704C23.426 25.568 23.596 25.364 23.698 25.024C23.766 24.854 23.834 24.616 23.902 24.344C24.004 24.004 24.106 23.766 24.106 23.63C24.106 23.358 24.14 23.052 24.14 22.746C24.14 22.27 24.004 21.76 23.902 21.148C23.834 20.808 23.8 20.672 23.732 20.604C23.494 20.366 23.222 20.264 22.848 20.094C22.474 19.89 22.168 19.754 21.862 19.618C21.59 19.516 21.386 19.414 21.318 19.414C20.706 19.414 20.128 19.38 19.584 19.38C19.346 19.38 19.21 19.448 19.142 19.516C18.836 19.822 18.53 20.128 18.224 20.434C17.816 20.842 17.272 20.91 16.966 21.046C16.694 21.182 16.422 21.352 16.354 21.42C16.082 21.692 15.844 21.93 15.674 22.1C15.266 22.508 15.062 22.916 14.824 23.392C14.62 23.834 14.518 24.344 14.416 24.786C14.348 25.058 14.348 25.296 14.348 25.602C14.348 26.01 14.824 26.35 15.368 26.724C15.47 26.792 15.64 26.792 15.946 26.792C16.286 26.792 16.694 26.418 17.17 26.078C17.272 26.01 17.442 25.67 17.714 25.398C17.986 25.126 18.462 24.65 18.836 24.276C19.006 24.106 19.244 23.902 19.482 23.664C19.754 23.392 20.332 23.052 20.876 23.052C21.42 23.052 21.998 23.63 21.998 24.174C21.998 24.854 21.522 25.16 21.25 25.534C20.774 26.146 20.332 26.622 19.924 27.03C19.652 27.302 19.516 27.472 19.278 27.71C18.802 28.186 18.394 28.696 17.816 29.07C17.51 29.24 17.204 29.274 16.898 29.274C16.49 29.274 16.116 29.308 15.742 29.308C15.436 29.308 15.13 29.308 14.824 29.24C14.45 29.138 14.144 28.9 13.906 28.798C13.6 28.662 13.294 28.526 13.056 28.288C12.58 27.778 12.342 27.234 12.036 26.792C11.9 26.554 11.696 26.214 11.628 25.908C11.492 25.398 11.628 24.99 11.628 24.82C11.628 24.582 11.39 24.684 10.914 24.684C10.676 24.684 10.438 25.262 9.89401 25.636C9.52001 25.874 9.24799 26.01 8.90799 26.01C8.32999 26.01 7.68398 25.942 7.13998 25.772C6.59598 25.602 5.88201 25.398 5.37201 24.922C4.82801 24.412 4.62398 23.8 4.41998 23.222C4.28398 22.814 4.31799 22.406 4.31799 22.168C4.31799 21.964 4.284 21.726 4.284 21.488C4.284 21.25 4.31798 21.012 4.41998 20.808C4.58998 20.434 4.99799 20.128 5.57599 20.128C6.28999 20.128 7.07199 20.366 7.07199 21.08C7.07199 21.386 7.07199 21.658 7.07199 21.93C7.07199 22.406 7.14 22.848 7.276 23.154C7.344 23.29 7.48001 23.392 7.548 23.392C8.024 23.392 8.296 23.528 8.466 23.426C8.534 23.392 8.53401 23.154 8.70401 22.712C8.94201 22.168 9.21399 21.862 9.21399 21.454C9.21399 21.318 9.078 20.944 9.078 20.57C9.078 20.434 9.04401 20.298 8.97601 20.23C8.67001 19.788 8.296 19.346 7.888 18.938C7.65 18.7 7.64998 18.598 7.44598 18.598C7.00398 18.598 6.83399 18.666 6.49399 18.632C6.01799 18.598 5.678 18.462 5.474 18.462C5.168 18.462 5.03201 18.598 4.76001 18.7C4.45401 18.802 4.31799 18.904 4.07999 19.142C3.87599 19.346 3.70598 19.55 3.50198 19.754C3.22998 20.026 3.094 20.4 2.992 20.774C2.856 21.182 2.82199 21.454 2.82199 21.828C2.82199 22.168 2.82199 22.508 2.82199 22.814C2.82199 23.154 2.78799 23.494 2.78799 23.8C2.78799 24.276 3.094 24.752 3.332 25.364C3.434 25.67 3.46798 25.738 3.50198 25.806C3.63798 26.01 3.91001 26.248 4.14801 26.452C4.35201 26.656 4.454 26.792 4.522 26.826C5.066 27.03 5.542 27.132 6.086 27.302C6.358 27.37 6.86799 27.438 7.34399 27.676C7.88799 27.948 8.262 28.39 8.5 28.628C8.738 28.866 9.01 29.206 9.146 29.58C9.248 29.886 9.384 30.294 9.384 30.6C9.384 31.314 9.28199 31.96 9.17999 32.538C9.07799 33.014 8.908 33.388 8.84 33.694C8.772 33.966 8.70401 34.204 8.70401 34.408C8.70401 35.19 8.19401 36.04 7.51401 36.04C7.10601 36.04 6.76601 35.904 6.56201 35.7C6.32401 35.462 6.18799 35.088 6.18799 34.782C6.18799 34.272 6.35799 33.83 6.45999 33.456C6.59599 32.878 6.90201 32.436 6.90201 31.994C6.90201 31.756 6.83398 31.45 6.83398 31.076C6.83398 30.974 6.83398 30.838 6.83398 30.702C6.83398 30.43 6.8 30.226 6.698 30.056C6.494 29.784 6.15401 29.75 5.64401 29.58C5.16801 29.41 4.72599 29.24 4.31799 29.104C4.04599 29.002 3.77398 28.9 3.50198 28.73C3.26398 28.56 3.09399 28.356 2.85599 28.22C2.51599 28.016 2.17599 27.88 1.97198 27.642C1.56398 27.166 1.224 26.622 0.917999 26.146C0.747999 25.84 0.680003 25.5 0.578003 25.228C0.408003 24.752 0.271983 24.174 0.169983 23.664C0.0679828 23.086 0 22.474 0 21.896C0 21.658 0.0679863 21.284 0.135986 20.944C0.237986 20.57 0.37399 20.298 0.40799 20.094C0.47599 19.89 0.543982 19.584 0.781982 19.176C1.05398 18.7 1.46198 17.952 1.97198 17.442C2.37998 17.034 3.06 16.558 3.672 16.32C4.216 16.116 4.828 16.252 5.202 16.15C5.644 16.048 6.08599 15.878 6.45999 15.674C6.79999 15.47 7.14 14.96 7.616 14.586C7.956 14.314 8.43199 14.008 8.87399 13.804C9.41799 13.532 10.098 13.532 10.472 13.362C10.982 13.158 11.322 13.022 11.628 12.716C11.764 12.58 11.934 12.444 12.07 12.308C12.342 12.036 12.512 11.9 12.75 11.662C13.158 11.254 13.94 10.88 14.62 10.88C15.232 10.88 15.878 11.22 16.286 11.22C16.558 11.22 16.728 10.982 16.626 9.928C16.592 9.554 16.694 9.18 16.728 8.84C16.762 8.228 16.898 7.684 16.898 7.14C16.898 6.834 16.898 6.528 16.898 6.188C16.898 5.576 17.136 4.964 17.238 4.386C17.306 4.08 17.34 3.774 17.476 3.434C17.68 2.958 17.986 2.312 18.428 1.734C18.666 1.428 18.972 1.19 19.278 0.985999C19.448 0.849999 19.652 0.476 20.026 0.476C20.162 0.476 20.502 0.0339994 21.08 0.0339994C21.76 0.0339994 22.44 0 23.12 0C23.97 0 24.344 0.782 24.82 1.394C25.092 1.768 25.296 2.176 25.432 2.584C25.636 3.298 25.568 3.842 25.636 4.25C25.67 4.556 25.84 4.726 25.84 5.134C25.84 5.848 25.636 6.494 25.636 7.004C25.636 7.31 25.636 7.582 25.636 7.82C25.636 8.296 25.398 8.432 25.364 8.636C25.296 8.942 25.33 9.248 25.33 9.52C25.33 9.962 25.16 10.098 25.092 10.336C24.956 10.948 24.82 11.56 24.684 12.138C24.616 12.478 24.548 12.682 24.548 12.852C24.548 13.192 24.446 13.464 24.446 13.566C24.446 13.906 24.48 14.212 24.48 14.518C24.48 14.926 24.378 15.198 24.378 15.334C24.378 15.674 24.31 15.878 24.31 16.014C24.31 16.354 24.31 16.66 24.31 16.932C24.31 17.34 24.582 17.68 24.922 18.258C25.194 18.768 25.636 19.244 25.942 19.788C26.112 20.06 26.214 20.366 26.282 20.57C26.418 20.944 26.452 21.216 26.452 21.386C26.452 21.658 26.622 21.998 26.622 22.406C26.622 22.984 26.588 23.528 26.588 24.038C26.588 24.582 26.35 24.854 26.214 25.16C25.976 25.772 25.704 26.384 25.398 26.894C25.228 27.234 25.092 27.438 24.956 27.574C24.684 27.846 24.378 28.084 24.276 28.186C24.174 28.288 23.936 28.56 23.8 28.696C23.392 29.104 22.916 29.478 22.576 29.818C22.338 30.056 22.202 30.294 22.032 30.464C21.794 30.702 21.386 30.94 21.25 31.008C20.876 31.212 20.672 31.212 20.502 31.314C20.298 31.45 20.128 31.62 19.89 31.756C19.312 32.062 18.802 32.266 18.326 32.47C17.68 32.708 17.17 32.742 16.762 32.878C16.422 33.014 16.252 33.184 16.048 33.184C15.912 33.184 15.47 33.456 15.164 33.524C14.96 33.558 14.79 33.558 14.62 33.558C13.974 33.558 13.396 33.49 12.954 33.49C12.478 33.49 11.764 33.456 11.866 33.762C12.002 34.204 11.764 34.51 11.866 35.02C12.002 35.666 11.526 36.21 11.39 36.652C11.288 36.992 11.22 37.468 10.982 37.842C10.778 38.182 10.472 38.522 10.03 38.522ZM12.478 20.91C12.648 20.74 12.75 20.604 12.886 20.366C13.022 20.128 13.09 19.958 13.09 19.788C13.09 19.38 13.124 18.972 13.124 18.564C13.124 18.19 12.92 17.85 12.784 17.476C12.682 17.238 12.614 17.034 12.444 16.83C12.308 16.66 12.138 16.49 11.968 16.354C11.56 16.048 11.39 15.81 11.22 15.81C10.88 15.81 10.54 15.912 10.336 15.98C10.03 16.116 9.89401 16.218 9.65601 16.456C9.41801 16.694 9.11199 17 9.51999 17.136C10.098 17.34 10.302 17.986 10.608 18.462C10.812 18.734 10.88 19.04 10.948 19.108C11.186 19.346 11.356 19.652 11.424 20.026C11.56 20.57 11.56 21.08 11.662 21.352C11.798 21.692 12.24 21.148 12.478 20.91ZM15.98 18.496C16.32 18.394 16.592 18.224 16.694 18.088C16.932 17.782 17.102 17.51 17.102 17.238C17.102 16.83 17.034 16.354 17.034 15.844C17.034 15.776 16.966 15.504 16.966 15.3C16.966 14.892 16.728 14.518 16.49 14.042C16.422 13.906 16.32 13.77 16.116 13.668C15.912 13.532 15.742 13.498 15.572 13.498C15.028 13.498 14.586 13.736 14.178 13.974C13.906 14.144 13.702 14.314 13.702 14.382C13.702 14.518 13.702 14.62 13.804 14.79C13.974 15.096 14.314 15.334 14.552 15.708C14.722 16.014 14.892 16.32 14.994 16.66C15.164 17.136 15.3 17.578 15.47 17.986C15.606 18.36 15.708 18.564 15.98 18.496ZM21.828 15.538C21.896 15.266 21.862 14.994 21.862 14.722C21.862 14.416 21.93 14.11 21.964 13.804C21.998 13.464 22.1 13.124 22.134 12.818C22.202 12.342 22.168 11.73 22.304 11.084C22.372 10.778 22.576 10.506 22.644 10.234C22.814 9.622 22.916 9.078 22.916 8.568C22.916 8.262 22.916 7.888 22.984 7.48C23.12 6.834 23.358 6.324 23.358 5.814C23.358 5.678 23.29 5.406 23.29 5.1C23.29 4.998 23.188 4.794 23.12 4.454C22.984 3.978 22.984 3.502 22.848 3.196C22.678 2.72 22.78 2.278 22.508 2.278C22.304 2.278 22.1 2.312 21.862 2.312C21.658 2.312 21.522 2.312 21.42 2.414C21.148 2.686 20.944 2.89 20.774 3.06C20.434 3.4 20.298 3.706 20.128 4.08C19.89 4.556 19.788 4.964 19.652 5.406C19.584 5.678 19.516 5.916 19.414 6.222C19.346 6.46 19.278 6.664 19.244 6.868C19.21 7.242 19.176 7.548 19.176 7.82C19.176 8.432 19.108 8.942 19.108 9.418C19.108 9.656 19.176 9.962 19.176 10.268C19.176 10.506 19.244 10.778 19.244 11.05C19.244 11.662 19.108 12.172 19.108 12.58C19.108 12.92 19.074 13.226 19.074 13.532C19.074 13.872 19.346 14.28 19.448 14.79C19.584 15.334 19.516 15.742 19.686 16.014C19.788 16.218 20.128 16.898 20.672 16.898C20.842 16.898 21.148 16.83 21.556 16.83C22.032 16.83 21.556 16.456 21.828 15.538Z" fill="#240909"/>
</svg>
