<svg width="42" height="27" viewBox="0 0 42 27" fill="none" xmlns="http://www.w3.org/2000/svg">
<path d="M0.884177 11.7731C0.735218 12.2609 0.91143 12.848 1.20954 13.1523C1.51758 13.4241 1.86262 13.4584 2.0252 13.508C2.578 13.6769 3.03772 13.5684 3.45772 13.59C3.70521 13.5945 3.94996 13.4915 4.23268 13.6134C4.51541 13.7353 4.69514 13.6124 5.04017 13.6467C5.28765 13.6512 5.55773 13.6981 5.88017 13.6899C6.05269 13.7071 6.34535 13.7965 6.71024 13.7657C7.11759 13.7123 8.47963 13.5595 8.64845 13.0067C8.74776 12.6815 8.81454 12.3464 8.92378 11.9887C9.0926 11.4359 8.94169 10.9988 9.05093 10.6411C9.20982 10.1208 9.55116 9.58517 9.86991 9.00707C10.1065 8.58161 10.428 8.11097 10.7594 7.60782C10.884 7.43258 11.0086 7.25734 11.1757 7.05951C11.2804 6.9493 11.6851 6.78847 11.8422 6.62316C12.0418 6.43526 12.2513 6.21485 12.4184 6.01703C12.6053 5.75416 12.7977 5.70626 12.8672 5.47864C12.9367 5.25102 13.2889 5.14528 13.6583 4.86704C14.1027 4.57613 14.5669 4.2202 14.9913 3.99433C15.3734 3.79105 15.8927 3.48748 16.3172 3.26161C16.6567 3.08091 16.804 2.94812 17.0162 2.83519C17.186 2.74484 17.4307 2.64185 17.7857 2.6436C17.9682 2.62822 18.2156 2.63269 18.4956 2.6471C18.8506 2.64885 19.108 2.62084 19.2381 2.66056C19.4982 2.74 19.8008 2.79684 20.0935 2.88621C20.5487 3.02524 20.9968 3.30427 21.5523 3.58058C21.8576 3.74492 21.9777 3.81717 22.0229 3.90207C22.181 4.19921 22.1991 4.48914 22.2525 4.89648C22.3383 5.31376 22.379 5.64613 22.4197 5.97851C22.4378 6.26844 22.4758 6.49335 22.4559 6.55838C22.2772 7.14369 22.1409 7.70643 21.982 8.22671C21.9125 8.45433 21.8077 8.56453 21.7228 8.6097C21.3408 8.81298 20.9588 9.01626 20.5767 9.21954C20.0673 9.49058 19.8434 9.99099 19.624 10.2439C19.4145 10.4643 19.1724 10.6748 19.0875 10.72C18.748 10.9007 18.4508 11.0588 18.2386 11.1717C17.7292 11.4428 17.2794 11.5187 16.7547 11.6073C16.2723 11.6733 15.7548 11.6219 15.3023 11.5904C15.0223 11.576 14.7946 11.5065 14.502 11.4171C14.1118 11.2979 13.9256 10.7433 13.7268 10.1138C13.6916 9.99641 13.7412 9.83385 13.8306 9.54119C13.9299 9.21602 14.4068 8.93502 14.871 8.57908C14.9658 8.50139 15.3406 8.43813 15.6802 8.25744C16.0198 8.07675 16.6141 7.76052 17.081 7.51206C17.2932 7.39913 17.5579 7.2311 17.855 7.07299C18.1946 6.89229 18.6886 6.43879 18.8475 5.91851C19.0064 5.39824 18.6224 4.67664 18.1021 4.51775C17.4518 4.31914 17.0201 4.68499 16.5829 4.83589C15.8586 5.11239 15.2743 5.39607 14.7649 5.66711C14.4253 5.84781 14.223 5.92825 13.9258 6.08636C13.3316 6.40258 12.7247 6.6438 12.1981 7.08736C11.9462 7.33036 11.8243 7.61309 11.7349 7.90574C11.6157 8.29595 11.474 8.64372 11.3647 9.00141C11.2754 9.29407 11.186 9.58672 11.1617 9.89924C11.15 10.2867 11.2882 10.6489 11.3163 10.9063C11.3569 11.2387 11.3976 11.5711 11.5557 11.8682C11.9045 12.4724 12.3552 12.8589 12.6886 13.2807C12.8765 13.4803 13.1421 13.7747 13.4149 13.9291C13.8629 14.2081 14.2928 14.1972 14.4554 14.2469C14.6831 14.3164 14.516 14.5142 14.377 14.9695C14.3074 15.1971 13.6851 15.2559 13.1686 15.6669C12.8317 15.9551 12.6222 16.1755 12.5229 16.5007C12.3541 17.0535 12.2304 17.6912 12.2341 18.2611C12.2378 18.8311 12.2244 19.5735 12.5306 20.2003C12.8595 20.8695 13.3852 21.2434 13.8785 21.6073C14.2289 21.8566 14.6291 21.9432 14.8567 22.0127C15.0518 22.0723 15.2695 22.1743 15.4971 22.2438C15.7247 22.3133 15.9623 22.3504 16.1872 22.3124C16.5945 22.259 17.0064 21.9582 17.1752 21.4054C17.3837 20.7225 17.3845 19.9051 16.7016 19.6966C16.409 19.6072 16.1488 19.5278 15.8887 19.4483C15.4335 19.3093 15.0306 19.1151 14.7777 18.8957C14.6675 18.7909 14.6096 18.6311 14.6295 18.566C14.7685 18.1108 14.7179 17.8109 14.8651 17.6781C14.9175 17.623 15.1451 17.6925 15.6175 17.6591C16.2073 17.5903 16.5794 17.4196 16.9696 17.5387C17.0997 17.5785 17.4176 17.8178 17.7753 17.927C17.9054 17.9667 18.0255 18.039 18.0707 18.1238C18.4041 18.5456 18.7175 19.0324 18.9886 19.5418C19.1467 19.8389 19.2442 19.8687 19.1847 20.0638C19.0556 20.4866 18.9409 20.6293 18.8741 20.9644C18.7676 21.4296 18.7983 21.7944 18.7387 21.9895C18.6494 22.2822 18.4796 22.3725 18.3026 22.6029C18.1157 22.8658 17.9784 22.9661 17.6812 23.1242C17.4266 23.2597 17.1818 23.3627 16.9271 23.4982C16.5875 23.6789 16.1901 23.6997 15.8026 23.688C15.3727 23.6989 15.1026 23.652 14.7449 23.5428C14.4198 23.4435 14.0946 23.3442 13.8019 23.2548C13.4768 23.1555 13.1416 23.0887 12.849 22.9993C12.3937 22.8603 12.0279 22.4286 11.5121 22.0222C11.2492 21.8353 11.1941 21.7829 11.139 21.7306C10.9836 21.5409 10.8355 21.2112 10.7099 20.924C10.5743 20.6693 10.4741 20.5321 10.4614 20.4571C10.4252 19.8772 10.4667 19.3922 10.463 18.8223C10.4774 18.5423 10.5613 18.0347 10.4727 17.5099C10.3715 16.9102 10.058 16.4234 9.89987 16.1262C9.74176 15.8291 9.49603 15.4697 9.17806 15.2304C8.91519 15.0434 8.56471 14.7942 8.27206 14.7048C7.58919 14.4963 6.94156 14.4051 6.35897 14.3339C5.87394 14.2924 5.46659 14.3457 5.15408 14.3214C4.87408 14.307 4.6266 14.3025 4.43149 14.2429C3.68359 14.0145 2.7217 14.254 2.52308 14.9044C2.40392 15.2946 2.43468 15.6595 2.5702 15.9141C2.72831 16.2113 3.04627 16.4506 3.33893 16.54C3.82669 16.6889 4.29907 16.6555 4.68655 16.6671C5.27907 16.7059 5.79118 16.5423 6.21391 16.6714C6.44153 16.7409 6.71432 16.8954 7.07201 17.0046C7.16956 17.0344 7.29963 17.0741 7.4297 17.1138C7.68984 17.1933 7.87502 17.2854 8.00781 17.4326C8.20837 17.7071 8.14158 18.0422 8.15521 18.5796C8.17877 19.0845 8.21225 19.5569 8.22315 19.9869C8.24126 20.2768 8.25937 20.5667 8.34251 20.8765C8.43558 21.1538 8.58103 21.376 8.64159 21.6433C8.73738 22.0281 8.76815 22.393 8.93619 22.6576C9.27226 23.1868 9.69324 23.6709 10.0591 24.1026C10.3021 24.3545 10.6074 24.5189 10.8378 24.6959C11.2434 24.9975 11.7564 25.2964 12.2144 25.5429C12.7374 25.8093 13.3029 26.053 13.8557 26.2219C14.0833 26.2914 14.4608 26.3356 14.8059 26.3699C15.1933 26.3815 15.4932 26.3309 15.6982 26.358C15.9132 26.3525 16.2257 26.3769 16.6854 26.2684C17.2201 26.1473 18.0547 25.9756 18.6914 25.6368C19.2008 25.3657 19.8546 24.8544 20.261 24.3386C20.615 23.8779 20.6637 23.2529 20.8705 22.925C21.0971 22.532 21.3888 22.159 21.6932 21.8609C21.9876 21.5953 22.5746 21.4191 23.0714 21.073C23.4308 20.8273 23.8625 20.4615 24.1867 20.0983C24.6057 19.6575 24.8043 19.0071 25.0762 18.6991C25.4202 18.2709 25.6496 17.9855 26.0316 17.7822C26.2014 17.6918 26.3812 17.569 26.5509 17.4786C26.8905 17.2979 27.0703 17.1751 27.3674 17.0169C27.8768 16.7459 28.4629 16.1072 28.6615 15.4569C28.8402 14.8716 28.7037 14.1544 28.8229 13.7642C28.9024 13.5041 29.1796 13.411 30.1579 13.8164C30.5056 13.9582 30.8931 13.9699 31.2282 14.0367C31.8235 14.1829 32.3835 14.2117 32.9037 14.3706C33.1964 14.46 33.4891 14.5493 33.8142 14.6486C34.3995 14.8274 35.0544 14.7785 35.637 14.8498C35.9495 14.8741 36.2521 14.931 36.617 14.9002C37.1318 14.8442 37.839 14.7402 38.5209 14.4863C38.8831 14.348 39.2001 14.1249 39.4845 13.8918C39.6643 13.769 40.0815 13.6831 40.1908 13.3254C40.2305 13.1953 40.7525 12.9993 40.9213 12.4465C41.12 11.7961 41.3511 11.1557 41.5497 10.5053C41.798 9.69241 41.1593 9.1063 40.713 8.47231C40.4348 8.10293 40.1042 7.78866 39.7537 7.53942C39.1304 7.13578 38.5902 7.04194 38.2199 6.85774C37.9372 6.73584 37.8242 6.52359 37.434 6.40443C36.7512 6.19588 36.0737 6.20232 35.586 6.05336C35.2933 5.96398 35.0332 5.88454 34.8056 5.81502C34.3503 5.67599 34.1507 5.86389 33.9457 5.83683C33.6332 5.81249 33.3505 5.69059 33.0903 5.61115C32.6676 5.48205 32.4879 5.60489 32.2404 5.60041C31.6154 5.55173 30.9903 5.50307 30.3978 5.46431C30.0528 5.43004 29.8378 5.43548 29.6752 5.38583C29.35 5.28652 29.0601 5.30465 28.9625 5.27486C28.6374 5.17555 28.3547 5.05363 28.062 4.96425C27.6718 4.84509 27.3819 4.86321 27.2518 4.82349C26.9266 4.72418 26.7116 4.72963 26.5816 4.68991C26.2564 4.5906 25.9637 4.50122 25.7036 4.42178C25.3134 4.30261 25.0677 3.94317 24.6142 3.44917C24.2059 3.04007 23.8797 2.47833 23.4488 2.02678C23.2383 1.78475 22.9755 1.59779 22.8002 1.47318C22.4823 1.23387 22.232 1.12192 22.0695 1.07227C21.8093 0.992825 21.5338 0.730918 21.1436 0.611751C20.5908 0.44293 20.0606 0.316555 19.5728 0.167595C19.0525 0.00870492 18.7229 0.156903 18.3905 0.197598C17.7357 0.246469 17.0709 0.327838 16.4938 0.471533C16.119 0.534815 15.8841 0.605315 15.7143 0.695662C15.3747 0.876357 15.0578 1.09949 14.9304 1.16725C14.8031 1.23501 14.4734 1.3832 14.3036 1.47355C13.7942 1.74459 13.2975 2.0906 12.873 2.31646C12.5759 2.47457 12.3086 2.5351 12.0963 2.64804C11.7992 2.80614 11.4524 3.12685 11.3476 3.23706C11.0433 3.53517 10.9837 3.73029 10.8365 3.86308C10.6468 4.01847 10.4346 4.1314 10.235 4.3193C9.77355 4.78272 9.42948 5.21089 9.09535 5.60655C8.67904 6.15487 8.49757 6.63269 8.24833 6.98318C8.01895 7.26863 7.80672 7.38156 7.74713 7.57666C7.70741 7.70673 7.31817 8.05002 7.16376 8.32281C7.07166 8.50798 7.02201 8.67058 6.97236 8.83317C6.78367 9.451 6.67989 10.0236 6.55079 10.4464C6.41176 10.9016 6.23573 11.5944 5.97287 11.4075C5.58986 11.1483 5.22769 11.2866 4.76972 11.0401C4.19162 10.7213 3.5323 11.0177 3.06986 11.0186C2.71489 11.0169 2.23979 10.9429 1.81258 11.0613C1.42782 11.1571 1.01328 11.3504 0.884177 11.7731ZM18.4432 14.576C18.6554 14.463 18.8153 14.4052 19.0826 14.3446C19.35 14.2841 19.5324 14.2687 19.695 14.3184C20.0852 14.4375 20.4854 14.5242 20.8756 14.6433C21.2333 14.7526 21.4989 15.047 21.8168 15.2863C22.0147 15.4534 22.1899 15.578 22.3354 15.8001C22.4582 15.9799 22.5712 16.1921 22.6516 16.3944C22.8251 16.874 23.003 17.1061 22.9534 17.2687C22.8541 17.5939 22.6572 17.8893 22.5326 18.0645C22.3132 18.3174 22.1759 18.4177 21.8787 18.5758C21.5816 18.7339 21.1996 18.9372 21.1887 18.5073C21.1624 17.8949 20.6041 17.5111 20.2383 17.0794C20.0377 16.8049 19.7649 16.6505 19.7197 16.5656C19.5616 16.2684 19.3186 16.0165 18.9808 15.8422C18.5003 15.5532 18.0125 15.4043 17.7821 15.2273C17.4967 14.9979 18.1461 14.7341 18.4432 14.576ZM21.7748 11.9317C21.9717 11.6363 22.2137 11.4259 22.3736 11.368C22.7357 11.2298 23.0455 11.1467 23.3057 11.2261C23.6959 11.3453 24.1312 11.5493 24.619 11.6983C24.684 11.7181 24.9243 11.8626 25.1194 11.9222C25.5096 12.0414 25.7978 12.3782 26.1835 12.7449C26.2937 12.8497 26.394 12.9869 26.432 13.2118C26.5025 13.4466 26.4853 13.6192 26.4357 13.7818C26.2768 14.302 25.9201 14.6552 25.5733 14.9759C25.3313 15.1864 25.1091 15.3319 25.0441 15.312C24.914 15.2723 24.8164 15.2425 24.6836 15.0953C24.4406 14.8433 24.3123 14.4486 24.0241 14.1118C23.7811 13.8598 23.5381 13.6079 23.2427 13.411C22.8372 13.1094 22.4542 12.8502 22.1136 12.5685C21.7956 12.3291 21.6303 12.172 21.7748 11.9317ZM26.3119 7.2027C26.5919 7.21711 26.8421 7.32908 27.1022 7.40852C27.3949 7.4979 27.7074 7.52225 28.01 7.57911C28.3451 7.6459 28.7001 7.64764 29.0027 7.7045C29.4778 7.77849 30.0531 7.98978 30.7107 8.04839C31.0232 8.07273 31.3429 7.95704 31.6229 7.97145C32.2579 7.98762 32.808 8.04898 33.2957 8.19794C33.5884 8.28732 33.9461 8.39653 34.3562 8.45066C35.0137 8.50928 35.571 8.43062 36.0587 8.57958C36.1888 8.6193 36.4291 8.76378 36.7218 8.85315C36.8193 8.88294 36.9846 9.04009 37.2899 9.20443C37.7054 9.47353 38.1607 9.61256 38.4136 9.83201C38.8192 10.1336 39.2717 10.1652 39.1923 10.4253C39.1327 10.6204 39.0406 10.8056 38.9711 11.0332C38.9115 11.2283 38.8718 11.3584 38.7444 11.4261C38.4049 11.6068 38.1502 11.7424 37.9379 11.8553C37.5134 12.0812 37.1811 12.1219 36.7737 12.1752C36.249 12.2638 35.829 12.2422 35.3665 12.2431C35.0865 12.2287 34.839 12.2243 34.5166 12.2324C34.2691 12.228 34.0541 12.2334 33.8491 12.2064C33.4815 12.1296 33.1789 12.0728 32.9187 11.9933C32.3334 11.8146 31.8258 11.7306 31.3706 11.5916C31.1429 11.5221 30.8701 11.3677 30.5775 11.2783C30.3499 11.2088 30.1096 11.0643 29.8495 10.9849C29.2641 10.8061 28.7367 10.7872 28.3464 10.6681C28.0213 10.5688 27.7187 10.5119 27.426 10.4225C27.1009 10.3232 26.7901 9.94391 26.3321 9.6974C25.8516 9.40844 25.4415 9.3543 25.231 9.11227C25.0657 8.95513 24.5147 8.43135 24.6735 7.91107C24.7232 7.74849 24.8776 7.47569 24.9968 7.08548C25.1358 6.63024 25.3545 7.19471 26.3119 7.2027Z" fill="#240909"/>
</svg>
