<svg width="42" height="27" viewBox="0 0 42 27" fill="none" xmlns="http://www.w3.org/2000/svg">
<path d="M41.69 11.7731C41.839 12.2609 41.6628 12.848 41.3647 13.1523C41.0566 13.4241 40.7116 13.4584 40.549 13.508C39.9962 13.6769 39.5365 13.5684 39.1165 13.59C38.869 13.5945 38.6243 13.4915 38.3415 13.6134C38.0588 13.7353 37.8791 13.6124 37.534 13.6467C37.2866 13.6512 37.0165 13.6981 36.694 13.6899C36.5215 13.7071 36.2289 13.7965 35.864 13.7657C35.4566 13.7123 34.0946 13.5595 33.9258 13.0067C33.8265 12.6815 33.7597 12.3464 33.6504 11.9887C33.4816 11.4359 33.6325 10.9988 33.5233 10.6411C33.3644 10.1208 33.0231 9.58517 32.7043 9.00707C32.4677 8.58161 32.1462 8.11097 31.8148 7.60782C31.6902 7.43258 31.5656 7.25734 31.3985 7.05951C31.2938 6.9493 30.8892 6.78847 30.732 6.62316C30.5324 6.43526 30.3229 6.21485 30.1559 6.01703C29.9689 5.75416 29.7766 5.70626 29.707 5.47864C29.6375 5.25102 29.2853 5.14528 28.9159 4.86704C28.4716 4.57613 28.0074 4.2202 27.5829 3.99433C27.2008 3.79105 26.6815 3.48748 26.2571 3.26161C25.9175 3.08091 25.7703 2.94812 25.558 2.83519C25.3882 2.74484 25.1435 2.64185 24.7885 2.6436C24.6061 2.62822 24.3586 2.63269 24.0786 2.6471C23.7236 2.64885 23.4662 2.62084 23.3361 2.66056C23.076 2.74 22.7734 2.79684 22.4807 2.88621C22.0255 3.02524 21.5775 3.30427 21.0219 3.58058C20.7166 3.74492 20.5965 3.81717 20.5513 3.90207C20.3932 4.19921 20.3751 4.48914 20.3218 4.89648C20.2359 5.31376 20.1952 5.64613 20.1545 5.97851C20.1364 6.26844 20.0984 6.49335 20.1183 6.55838C20.297 7.14369 20.4333 7.70643 20.5922 8.22671C20.6617 8.45433 20.7665 8.56453 20.8514 8.6097C21.2334 8.81298 21.6155 9.01626 21.9975 9.21954C22.5069 9.49058 22.7308 9.99099 22.9502 10.2439C23.1598 10.4643 23.4018 10.6748 23.4867 10.72C23.8263 10.9007 24.1234 11.0588 24.3356 11.1717C24.845 11.4428 25.2948 11.5187 25.8196 11.6073C26.3019 11.6733 26.8194 11.6219 27.272 11.5904C27.552 11.576 27.7796 11.5065 28.0722 11.4171C28.4624 11.2979 28.6486 10.7433 28.8474 10.1138C28.8826 9.99641 28.833 9.83385 28.7436 9.54119C28.6443 9.21602 28.1674 8.93502 27.7032 8.57908C27.6084 8.50139 27.2336 8.43813 26.894 8.25744C26.5544 8.07675 25.9601 7.76052 25.4932 7.51206C25.281 7.39913 25.0164 7.2311 24.7192 7.07299C24.3796 6.89229 23.8856 6.43879 23.7267 5.91851C23.5679 5.39824 23.9518 4.67664 24.4721 4.51775C25.1225 4.31914 25.5541 4.68499 25.9913 4.83589C26.7156 5.11239 27.3 5.39607 27.8093 5.66711C28.1489 5.84781 28.3512 5.92825 28.6484 6.08636C29.2426 6.40258 29.8496 6.6438 30.3761 7.08736C30.628 7.33036 30.7499 7.61309 30.8393 7.90574C30.9585 8.29595 31.1002 8.64372 31.2095 9.00141C31.2988 9.29407 31.3882 9.58672 31.4126 9.89924C31.4243 10.2867 31.286 10.6489 31.258 10.9063C31.2173 11.2387 31.1766 11.5711 31.0185 11.8682C30.6697 12.4724 30.219 12.8589 29.8856 13.2807C29.6977 13.4803 29.4321 13.7747 29.1593 13.9291C28.7113 14.2081 28.2814 14.1972 28.1188 14.2469C27.8912 14.3164 28.0582 14.5142 28.1973 14.9695C28.2668 15.1971 28.8891 15.2559 29.4057 15.6669C29.7425 15.9551 29.952 16.1755 30.0513 16.5007C30.2202 17.0535 30.3438 17.6912 30.3401 18.2611C30.3364 18.8311 30.3499 19.5735 30.0436 20.2003C29.7147 20.8695 29.189 21.2434 28.6958 21.6073C28.3453 21.8566 27.9451 21.9432 27.7175 22.0127C27.5224 22.0723 27.3047 22.1743 27.0771 22.2438C26.8495 22.3133 26.6119 22.3504 26.387 22.3124C25.9797 22.259 25.5679 21.9582 25.399 21.4054C25.1905 20.7225 25.1897 19.9051 25.8726 19.6966C26.1652 19.6072 26.4254 19.5278 26.6855 19.4483C27.1408 19.3093 27.5436 19.1151 27.7965 18.8957C27.9068 18.7909 27.9646 18.6311 27.9447 18.566C27.8057 18.1108 27.8563 17.8109 27.7091 17.6781C27.6567 17.623 27.4291 17.6925 26.9567 17.6591C26.3669 17.5903 25.9948 17.4196 25.6046 17.5387C25.4746 17.5785 25.1566 17.8178 24.7989 17.927C24.6688 17.9667 24.5487 18.039 24.5035 18.1238C24.1702 18.5456 23.8567 19.0324 23.5856 19.5418C23.4275 19.8389 23.33 19.8687 23.3896 20.0638C23.5187 20.4866 23.6334 20.6293 23.7001 20.9644C23.8067 21.4296 23.7759 21.7944 23.8355 21.9895C23.9248 22.2822 24.0946 22.3725 24.2716 22.6029C24.4586 22.8658 24.5958 22.9661 24.893 23.1242C25.1477 23.2597 25.3924 23.3627 25.6471 23.4982C25.9867 23.6789 26.3841 23.6997 26.7716 23.688C27.2015 23.6989 27.4716 23.652 27.8293 23.5428C28.1545 23.4435 28.4796 23.3442 28.7723 23.2548C29.0975 23.1555 29.4326 23.0887 29.7252 22.9993C30.1805 22.8603 30.5463 22.4286 31.0621 22.0222C31.325 21.8353 31.3801 21.7829 31.4352 21.7306C31.5906 21.5409 31.7388 21.2112 31.8644 20.924C31.9999 20.6693 32.1002 20.5321 32.1128 20.4571C32.149 19.8772 32.1076 19.3922 32.1112 18.8223C32.0968 18.5423 32.0129 18.0347 32.1015 17.5099C32.2028 16.9102 32.5162 16.4234 32.6744 16.1262C32.8325 15.8291 33.0782 15.4697 33.3962 15.2304C33.659 15.0434 34.0095 14.7942 34.3022 14.7048C34.985 14.4963 35.6327 14.4051 36.2152 14.3339C36.7003 14.2924 37.1076 14.3457 37.4201 14.3214C37.7001 14.307 37.9476 14.3025 38.1427 14.2429C38.8906 14.0145 39.8525 14.254 40.0511 14.9044C40.1703 15.2946 40.1395 15.6595 40.004 15.9141C39.8459 16.2113 39.5279 16.4506 39.2353 16.54C38.7475 16.6889 38.2752 16.6555 37.8877 16.6671C37.2951 16.7059 36.783 16.5423 36.3603 16.6714C36.1327 16.7409 35.8599 16.8954 35.5022 17.0046C35.4047 17.0344 35.2746 17.0741 35.1445 17.1138C34.8844 17.1933 34.6992 17.2854 34.5664 17.4326C34.3659 17.7071 34.4326 18.0422 34.419 18.5796C34.3955 19.0845 34.362 19.5569 34.3511 19.9869C34.333 20.2768 34.3149 20.5667 34.2317 20.8765C34.1386 21.1538 33.9932 21.376 33.9326 21.6433C33.8368 22.0281 33.8061 22.393 33.638 22.6576C33.302 23.1868 32.881 23.6709 32.5151 24.1026C32.2721 24.3545 31.9668 24.5189 31.7364 24.6959C31.3309 24.9975 30.8178 25.2964 30.3598 25.5429C29.8368 25.8093 29.2714 26.053 28.7186 26.2219C28.4909 26.2914 28.1134 26.3356 27.7684 26.3699C27.3809 26.3815 27.081 26.3309 26.876 26.358C26.661 26.3525 26.3485 26.3769 25.8888 26.2684C25.3541 26.1473 24.5195 25.9756 23.8828 25.6368C23.3734 25.3657 22.7196 24.8544 22.3132 24.3386C21.9592 23.8779 21.9105 23.2529 21.7037 22.925C21.4771 22.532 21.1854 22.159 20.8811 21.8609C20.5866 21.5953 19.9996 21.4191 19.5029 21.073C19.1434 20.8273 18.7117 20.4615 18.3875 20.0983C17.9685 19.6575 17.7699 19.0071 17.4981 18.6991C17.154 18.2709 16.9246 17.9855 16.5426 17.7822C16.3728 17.6918 16.1931 17.569 16.0233 17.4786C15.6837 17.2979 15.504 17.1751 15.2068 17.0169C14.6975 16.7459 14.1114 16.1072 13.9127 15.4569C13.734 14.8716 13.8705 14.1544 13.7513 13.7642C13.6719 13.5041 13.3946 13.411 12.4163 13.8164C12.0686 13.9582 11.6811 13.9699 11.346 14.0367C10.7508 14.1829 10.1908 14.2117 9.67047 14.3706C9.37782 14.46 9.08516 14.5493 8.75998 14.6486C8.17467 14.8274 7.51984 14.7785 6.93726 14.8498C6.62474 14.8741 6.32215 14.931 5.95725 14.9002C5.44242 14.8442 4.73522 14.7402 4.05332 14.4863C3.69115 14.348 3.37416 14.1249 3.08968 13.8918C2.90996 13.769 2.49268 13.6831 2.38344 13.3254C2.34372 13.1953 1.82169 12.9993 1.65287 12.4465C1.45426 11.7961 1.22313 11.1557 1.02451 10.5053C0.776247 9.69241 1.41491 9.1063 1.86119 8.47231C2.13944 8.10293 2.47006 7.78866 2.82055 7.53942C3.44383 7.13578 3.98398 7.04194 4.35433 6.85774C4.63705 6.73584 4.74998 6.52359 5.14019 6.40443C5.82306 6.19588 6.50047 6.20232 6.98824 6.05336C7.28089 5.96398 7.54103 5.88454 7.76865 5.81502C8.2239 5.67599 8.42348 5.86389 8.62852 5.83683C8.94104 5.81249 9.22376 5.69059 9.4839 5.61115C9.90663 5.48205 10.0863 5.60489 10.3338 5.60041C10.9589 5.55173 11.5839 5.50307 12.1764 5.46431C12.5215 5.43004 12.7364 5.43548 12.899 5.38583C13.2242 5.28652 13.5141 5.30465 13.6117 5.27486C13.9368 5.17555 14.2196 5.05363 14.5122 4.96425C14.9024 4.84509 15.1924 4.86321 15.3224 4.82349C15.6476 4.72418 15.8626 4.72963 15.9926 4.68991C16.3178 4.5906 16.6105 4.50122 16.8706 4.42178C17.2608 4.30261 17.5066 3.94317 17.96 3.44917C18.3684 3.04007 18.6945 2.47833 19.1254 2.02678C19.3359 1.78475 19.5988 1.59779 19.774 1.47318C20.092 1.23387 20.3422 1.12192 20.5048 1.07227C20.7649 0.992825 21.0404 0.730918 21.4306 0.611751C21.9834 0.44293 22.5136 0.316555 23.0014 0.167595C23.5217 0.00870492 23.8513 0.156903 24.1837 0.197598C24.8385 0.246469 25.5033 0.327838 26.0804 0.471533C26.4553 0.534815 26.6901 0.605315 26.8599 0.695662C27.1995 0.876357 27.5165 1.09949 27.6438 1.16725C27.7712 1.23501 28.1008 1.3832 28.2706 1.47355C28.78 1.74459 29.2767 2.0906 29.7012 2.31646C29.9983 2.47457 30.2657 2.5351 30.4779 2.64804C30.775 2.80614 31.1218 3.12685 31.2266 3.23706C31.5309 3.53517 31.5905 3.73029 31.7377 3.86308C31.9274 4.01847 32.1396 4.1314 32.3392 4.3193C32.8007 4.78272 33.1447 5.21089 33.4789 5.60655C33.8952 6.15487 34.0767 6.63269 34.3259 6.98318C34.5553 7.26863 34.7675 7.38156 34.8271 7.57666C34.8668 7.70673 35.256 8.05002 35.4105 8.32281C35.5026 8.50798 35.5522 8.67058 35.6019 8.83317C35.7905 9.451 35.8943 10.0236 36.0234 10.4464C36.1625 10.9016 36.3385 11.5944 36.6014 11.4075C36.9844 11.1483 37.3465 11.2866 37.8045 11.0401C38.3826 10.7213 39.0419 11.0177 39.5044 11.0186C39.8593 11.0169 40.3344 10.9429 40.7616 11.0613C41.1464 11.1571 41.5609 11.3504 41.69 11.7731ZM24.131 14.576C23.9188 14.463 23.7589 14.4052 23.4916 14.3446C23.2242 14.2841 23.0418 14.2687 22.8792 14.3184C22.489 14.4375 22.0888 14.5242 21.6986 14.6433C21.3409 14.7526 21.0753 15.047 20.7574 15.2863C20.5595 15.4534 20.3843 15.578 20.2389 15.8001C20.116 15.9799 20.0031 16.1921 19.9226 16.3944C19.7492 16.874 19.5712 17.1061 19.6208 17.2687C19.7201 17.5939 19.917 17.8893 20.0416 18.0645C20.2611 18.3174 20.3983 18.4177 20.6955 18.5758C20.9926 18.7339 21.3746 18.9372 21.3855 18.5073C21.4118 17.8949 21.9701 17.5111 22.3359 17.0794C22.5365 16.8049 22.8093 16.6505 22.8545 16.5656C23.0126 16.2684 23.2556 16.0165 23.5934 15.8422C24.074 15.5532 24.5617 15.4043 24.7921 15.2273C25.0775 14.9979 24.4282 14.7341 24.131 14.576ZM20.7994 11.9317C20.6026 11.6363 20.3605 11.4259 20.2007 11.368C19.8385 11.2298 19.5287 11.1467 19.2686 11.2261C18.8784 11.3453 18.443 11.5493 17.9552 11.6983C17.8902 11.7181 17.6499 11.8626 17.4548 11.9222C17.0646 12.0414 16.7764 12.3782 16.3907 12.7449C16.2805 12.8497 16.1802 12.9869 16.1422 13.2118C16.0717 13.4466 16.0889 13.6192 16.1385 13.7818C16.2974 14.302 16.6541 14.6552 17.0009 14.9759C17.243 15.1864 17.4651 15.3319 17.5302 15.312C17.6602 15.2723 17.7578 15.2425 17.8906 15.0953C18.1336 14.8433 18.2619 14.4486 18.5501 14.1118C18.7931 13.8598 19.0361 13.6079 19.3315 13.411C19.7371 13.1094 20.1201 12.8502 20.4606 12.5685C20.7786 12.3291 20.9439 12.172 20.7994 11.9317ZM16.2623 7.2027C15.9823 7.21711 15.7321 7.32908 15.472 7.40852C15.1793 7.4979 14.8668 7.52225 14.5642 7.57911C14.2291 7.6459 13.8742 7.64764 13.5716 7.7045C13.0965 7.77849 12.5211 7.98978 11.8635 8.04839C11.551 8.07273 11.2313 7.95704 10.9513 7.97145C10.3163 7.98762 9.76625 8.04898 9.27849 8.19794C8.98583 8.28732 8.62813 8.39653 8.21806 8.45066C7.56051 8.50928 7.00324 8.43062 6.51548 8.57958C6.38541 8.6193 6.14512 8.76378 5.85247 8.85315C5.75491 8.88294 5.58961 9.04009 5.28429 9.20443C4.86877 9.47353 4.41353 9.61256 4.1606 9.83201C3.755 10.1336 3.30249 10.1652 3.38193 10.4253C3.44151 10.6204 3.53361 10.8056 3.60313 11.0332C3.66271 11.2283 3.70243 11.3584 3.82977 11.4261C4.16936 11.6068 4.42406 11.7424 4.6363 11.8553C5.06078 12.0812 5.39315 12.1219 5.8005 12.1752C6.32526 12.2638 6.74525 12.2422 7.2077 12.2431C7.4877 12.2287 7.73519 12.2243 8.05764 12.2324C8.30512 12.228 8.52009 12.2334 8.72512 12.2064C9.09275 12.1296 9.39533 12.0728 9.65547 11.9933C10.2408 11.8146 10.7484 11.7306 11.2037 11.5916C11.4313 11.5221 11.7041 11.3677 11.9967 11.2783C12.2243 11.2088 12.4646 11.0643 12.7248 10.9849C13.3101 10.8061 13.8376 10.7872 14.2278 10.6681C14.5529 10.5688 14.8555 10.5119 15.1482 10.4225C15.4734 10.3232 15.7841 9.94391 16.2421 9.6974C16.7227 9.40844 17.1327 9.3543 17.3432 9.11227C17.5085 8.95513 18.0596 8.43135 17.9007 7.91107C17.851 7.74849 17.6966 7.47569 17.5774 7.08548C17.4384 6.63024 17.2198 7.19471 16.2623 7.2027Z" fill="#240909"/>
</svg>
